<?xml version="1.0" encoding="UTF-8"?>
<!DOCTYPE svg PUBLIC "-//W3C//DTD SVG 1.1//EN" "http://www.w3.org/Graphics/SVG/1.1/DTD/svg11.dtd">
<!-- Creator: CorelDRAW -->
<svg xmlns="http://www.w3.org/2000/svg" xml:space="preserve" width="5.33406in" height="5.33406in" version="1.1" style="shape-rendering:geometricPrecision; text-rendering:geometricPrecision; image-rendering:optimizeQuality; fill-rule:evenodd; clip-rule:evenodd"
viewBox="0 0 496.7 496.7"
 xmlns:xlink="http://www.w3.org/1999/xlink"
 xmlns:xodm="http://www.corel.com/coreldraw/odm/2003">
 <defs>
  <style type="text/css">
   <![CDATA[
    .fil4 {fill:none}
    .fil2 {fill:#00316C}
    .fil0 {fill:#02AC51}
    .fil1 {fill:#CCCC33}
    .fil3 {fill:#FDBD11}
   ]]>
  </style>
 </defs>
 <g id="Layer_x0020_1">
  <metadata id="CorelCorpID_0Corel-Layer"/>
  <g id="_2327903504160">
   <g>
    <path class="fil0" d="M190.1 436.74c11.28,0.01 24.76,-0.67 36.87,-0.56l17.15 0.36c19.46,-1.49 43.05,-0.45 62.25,0.18l5.25 -6.56c1.4,-3.3 1.39,-4.51 0.34,-7.86 -3.7,-11.78 -28.12,-4.74 -51.11,-7.02 -3.11,-10.88 -4.09,-34.8 1.54,-43.2 28.23,-42.15 83.78,-11.64 86.46,9 2.83,-21.49 -17.63,-55.76 -45.64,-52.28 -25.16,3.13 -35.85,33.38 -61.9,36.38 0.13,12.95 2.53,39.85 -2.85,50.08 -12.56,1.07 -27.36,0.21 -40.17,0.23 -7.21,0.01 -11.88,1.73 -13.56,7.02 -2.37,7.47 2.36,9.16 5.36,14.21z"/>
    <path class="fil0" d="M137.31 313.97c1.82,-1.29 1.07,-0.72 2.66,-2.09l4.61 -4.59c14.92,-15.36 42.7,-24.06 62.63,-20.77 13.82,2.29 25.32,10.47 30.75,18.19 5.02,7.13 5.5,7.8 5.41,18.86 -0.06,7.73 -0.56,15.72 0.36,23.36 2.09,-2.82 3.82,-6.93 5.75,-9.7 12.39,-17.78 9.97,-12.94 9.86,-37.14 -22.85,-4.73 -32.71,-44.07 -67.1,-40.51 -15.22,1.57 -29.76,9.45 -36.46,17.58 -6.67,8.08 -15.9,22.13 -18.47,36.82z"/>
    <path class="fil0" d="M258.9 270.83c0.65,-19.37 -1,-26.67 11.36,-35.69 23.32,-17.01 43.82,-17.17 68.94,-3.19 11.79,6.56 16.06,12.04 24.69,20.22 -1.09,-27.97 -25.37,-54.26 -51.77,-56.43 -29.8,-2.45 -45.89,36.66 -67.13,40.78 0.39,13.63 -2.01,10.68 4.66,20.29 2.94,4.24 5.06,9.42 9.24,14.03z"/>
    <path class="fil1" d="M265.79 99.38c1.13,-7.89 4.26,-10.68 2.02,-20.03 -3.65,-0.59 -2.58,-1.69 -7.28,2.61l-1.32 1.52c-0.27,-8.8 0.63,-20.66 -6.71,-23.52 -4.49,5.36 -4.45,14.74 -4.9,23.42 -14.62,-14.55 -6.39,8.29 -5.95,16.86 -3.29,-1.39 -4.04,-2.71 -7.83,-2.47 -1.3,5.02 0.32,10.88 3.5,14.65l-6.89 2.94c-0.51,6.6 3.62,12.86 6.18,17.37 4.63,8.15 5.18,5.67 11.63,11.08 -0,5.33 -2.12,18.45 10.34,18.86l0.14 -18.86c6.96,-6.39 5.33,0.51 14.17,-16.02 10.07,-18.84 -1.95,-13.39 -3.11,-13.73 2.03,-5 10.95,-25.91 -3.99,-14.69z"/>
    <path class="fil0" d="M185.14 174.39c0.31,-0.23 0.66,-0.57 0.86,-0.77 6.54,-6.49 18.14,-27.46 42.24,-14.32 23.9,13.04 17.53,33.5 18.44,46.42 2.97,-3.81 6.57,-11.09 9.51,-15.75 5.59,-8.86 4.48,-9.04 4.27,-21.58 -5.48,-4.21 -6.79,0.92 -21.13,-16.4 -26.03,-31.46 -48.46,-18.74 -54.19,22.4z"/>
    <path class="fil2" d="M123.16 436.35l32.8 -0.02c3.89,-3.11 10.56,-7.76 5.47,-16.24 -3.66,-6.09 -12.56,-4.49 -21.25,-4.48 -8.04,0.01 -17.75,-1.73 -21.73,3.95 -5.83,8.32 0.91,13.05 4.71,16.79z"/>
    <path class="fil2" d="M339.94 436.7c10.26,-0.84 22.49,-0.7 33.3,-0.37 3.94,-3.1 10.53,-7.78 5.47,-16.24 -3.52,-5.89 -11.66,-4.51 -19.95,-4.48 -5.19,0.02 -29.59,-3.42 -24.39,13.59 0.59,1.92 1.39,2.7 2.62,4.19l2.96 3.32z"/>
    <g>
     <path class="fil3" d="M334.7 288.74c-3.59,-3.59 -2.88,-0.42 -5.34,-6.2 -6.55,-15.39 -12.29,-9.16 -16.2,-13.74 -0.84,-0.98 0.96,2.14 -0.75,-1.57l-0.51 -1.33c-19.66,-1.22 -24.4,15.17 -24.01,33.73 18.5,-11.27 4.98,-8.74 20.59,-10.97l3.52 -1.19c0.75,-2.52 8.59,8.38 22.7,1.27z"/>
     <path class="fil0" d="M305.02 295.23l0 -0.95c-2.1,-1.59 -6.62,1.79 -9.58,3.52 -8.47,4.97 -20.38,17.59 -26.33,25.18 -4.23,5.4 -20.9,28.92 -20.25,31.3l2.96 3.56c4.28,3.37 10.13,4.48 15.31,2.37 4.97,-2.02 10.39,-8.56 13.02,-13.33 6.84,-12.39 10.23,-24.22 12.99,-40.01 9.71,-0.63 7.04,-6.53 11.88,-11.64z"/>
     <path class="fil0" d="M253.54 339.58c5.6,-9.64 17.9,-26.48 26.78,-34.21 3.7,-3.22 3.71,-2.99 4.6,-7.67 0.65,-3.42 0.58,-12.15 -0.52,-14.76 -1.21,-2.87 -2.74,1.64 -3.3,2.67 -1.06,1.93 -2.2,3.17 -2.88,5.39 -0.97,3.13 0.56,4.29 1.16,6.65 -3.4,1.48 -4.05,2.78 -6.27,4.5 -4.97,3.85 -4.84,4.85 -7.79,7.84l-6.9 8.73c-5.34,8.12 -12.23,17.48 -10.97,31.01l6.09 -10.15z"/>
     <path class="fil0" d="M246.34 367.91c0.5,0.38 3.73,2.07 4.45,2.11 2.39,0.13 4.84,-5.18 5.48,-7.2 -1.89,-0.56 -5.62,-2.43 -6.99,-4.22 -1.8,1.4 -5.27,7.56 -2.94,9.31z"/>
    </g>
    <g>
     <path class="fil3" d="M170.86 222c3.59,-3.59 2.88,-0.42 5.34,-6.2 6.55,-15.39 12.29,-9.16 16.2,-13.74 0.84,-0.98 -0.96,2.14 0.75,-1.57l0.51 -1.33c19.66,-1.22 24.4,15.17 24.01,33.73 -18.5,-11.27 -4.98,-8.74 -20.59,-10.97l-3.52 -1.19c-0.75,-2.52 -8.59,8.38 -22.7,1.27z"/>
     <path class="fil0" d="M200.54 228.49l0 -0.95c2.1,-1.59 6.62,1.79 9.58,3.52 8.47,4.97 20.38,17.59 26.33,25.18 4.23,5.4 20.9,28.92 20.25,31.3l-2.96 3.56c-4.28,3.37 -10.13,4.48 -15.31,2.37 -4.97,-2.02 -10.39,-8.56 -13.02,-13.33 -6.84,-12.39 -10.23,-24.22 -12.99,-40.01 -9.71,-0.63 -7.04,-6.53 -11.88,-11.64z"/>
     <path class="fil0" d="M252.02 272.84c-5.6,-9.64 -17.9,-26.48 -26.78,-34.21 -3.7,-3.22 -3.71,-2.99 -4.6,-7.67 -0.65,-3.42 -0.58,-12.15 0.52,-14.76 1.21,-2.87 2.74,1.64 3.3,2.67 1.06,1.93 2.2,3.17 2.88,5.39 0.97,3.13 -0.56,4.29 -1.16,6.65 3.4,1.48 4.05,2.78 6.27,4.5 4.97,3.85 4.84,4.85 7.79,7.84l6.9 8.73c5.34,8.12 12.23,17.48 10.97,31.01l-6.09 -10.15z"/>
     <path class="fil0" d="M259.22 301.17c-0.5,0.38 -3.73,2.07 -4.45,2.11 -2.39,0.13 -4.84,-5.18 -5.48,-7.2 1.89,-0.56 5.62,-2.43 6.99,-4.22 1.8,1.4 5.27,7.56 2.94,9.31z"/>
    </g>
    <g>
     <path class="fil3" d="M319.33 169.42c-3.03,-3.03 -2.43,-0.36 -4.51,-5.23 -5.54,-12.99 -10.38,-7.73 -13.68,-11.6 -0.71,-0.83 0.81,1.81 -0.63,-1.32l-0.43 -1.12c-16.6,-1.03 -20.6,12.81 -20.27,28.48 15.62,-9.52 4.2,-7.38 17.38,-9.27l2.97 -1.01c0.63,-2.13 7.25,7.08 19.17,1.07z"/>
     <path class="fil0" d="M294.27 174.9l0 -0.8c-1.77,-1.34 -5.59,1.51 -8.09,2.97 -7.15,4.19 -17.21,14.85 -22.23,21.27 -3.57,4.56 -17.65,24.42 -17.1,26.43l2.5 3.01c3.62,2.85 8.55,3.78 12.93,2 4.2,-1.71 8.77,-7.23 10.99,-11.26 5.77,-10.47 8.64,-20.45 10.97,-33.78 8.2,-0.53 5.95,-5.51 10.03,-9.83z"/>
     <path class="fil0" d="M250.8 212.35c4.73,-8.14 15.12,-22.36 22.61,-28.88 3.12,-2.72 3.13,-2.52 3.89,-6.47 0.55,-2.89 0.49,-10.26 -0.44,-12.47 -1.02,-2.42 -2.31,1.39 -2.79,2.26 -0.89,1.63 -1.86,2.68 -2.44,4.55 -0.82,2.64 0.48,3.63 0.98,5.61 -2.87,1.25 -3.42,2.34 -5.29,3.8 -4.2,3.25 -4.08,4.1 -6.58,6.62l-5.83 7.37c-4.51,6.86 -10.33,14.76 -9.26,26.19l5.14 -8.57z"/>
     <path class="fil0" d="M244.71 236.27c0.43,0.32 3.15,1.75 3.76,1.78 2.02,0.11 4.08,-4.37 4.63,-6.08 -1.6,-0.47 -4.75,-2.05 -5.9,-3.56 -1.52,1.19 -4.45,6.39 -2.48,7.86z"/>
    </g>
   </g>
   <rect class="fil4" y="-0" width="496.7" height="496.7"/>
  </g>
 </g>
</svg>
