<?xml version="1.0" encoding="UTF-8"?>
<!DOCTYPE svg PUBLIC "-//W3C//DTD SVG 1.1//EN" "http://www.w3.org/Graphics/SVG/1.1/DTD/svg11.dtd">
<!-- Creator: CorelDRAW -->
<svg xmlns="http://www.w3.org/2000/svg" xml:space="preserve" width="5.33406in" height="5.33406in" version="1.1" style="shape-rendering:geometricPrecision; text-rendering:geometricPrecision; image-rendering:optimizeQuality; fill-rule:evenodd; clip-rule:evenodd"
viewBox="0 0 921.8 921.8"
 xmlns:xlink="http://www.w3.org/1999/xlink"
 xmlns:xodm="http://www.corel.com/coreldraw/odm/2003">
 <defs>
  <style type="text/css">
   <![CDATA[
    .fil5 {fill:none}
    .fil2 {fill:#00316C}
    .fil3 {fill:#996633}
    .fil4 {fill:#CCCC33}
    .fil1 {fill:#CCCC33}
    .fil0 {fill:#FDBD11}
   ]]>
  </style>
 </defs>
 <g id="Layer_x0020_1">
  <metadata id="CorelCorpID_0Corel-Layer"/>
  <path class="fil0" d="M352.8 810.52c20.93,0.02 45.96,-1.24 68.43,-1.03l31.83 0.67c36.11,-2.76 79.89,-0.83 115.52,0.34l9.74 -12.17c2.6,-6.13 2.58,-8.38 0.63,-14.58 -6.88,-21.87 -52.18,-8.8 -94.85,-13.03 -5.78,-20.18 -7.58,-64.58 2.86,-80.18 52.4,-78.22 155.49,-21.61 160.46,16.7 5.25,-39.88 -32.72,-103.49 -84.69,-97.02 -46.69,5.81 -66.54,61.94 -114.88,67.51 0.24,24.03 4.69,73.95 -5.29,92.95 -23.31,1.98 -50.78,0.39 -74.55,0.43 -13.38,0.02 -22.05,3.21 -25.16,13.03 -4.4,13.86 4.39,17.01 9.95,26.38z"/>
  <path class="fil0" d="M254.82 582.68c3.37,-2.39 1.98,-1.34 4.94,-3.89l8.56 -8.51c27.69,-28.51 79.24,-44.66 116.23,-38.54 25.66,4.24 46.99,19.43 57.06,33.75 9.31,13.23 10.2,14.47 10.04,35 -0.11,14.34 -5.47,66.13 -3.76,80.3l30.37 7.01 3.03 -130.9c-42.41,-8.78 -60.71,-81.79 -124.52,-75.19 -28.25,2.92 -55.22,17.54 -67.67,32.62 -12.38,15 -29.51,41.08 -34.28,68.34z"/>
  <path class="fil0" d="M481.3 556.91c1.21,-35.95 -2.67,-103.78 20.27,-120.51 43.28,-31.57 81.33,-31.87 127.94,-5.92 21.89,12.18 29.8,22.34 45.83,37.52 -2.02,-51.91 -47.09,-100.7 -96.09,-104.73 -55.31,-4.55 -85.16,68.03 -124.58,75.68l-4.07 142.88 30.69 -24.9z"/>
  <path class="fil1" d="M493.27 184.43c2.1,-14.65 7.91,-19.83 3.75,-37.18 -6.77,-1.09 -4.8,-3.13 -13.5,4.85l-2.46 2.83c-0.5,-16.34 1.17,-38.34 -12.45,-43.65 -8.34,9.95 -8.26,27.35 -9.09,43.47 -27.14,-27 -11.85,15.38 -11.04,31.29 -6.1,-2.58 -7.5,-5.03 -14.53,-4.58 -2.42,9.32 0.6,20.19 6.5,27.18l-12.79 5.46c-0.94,12.24 6.71,23.86 11.47,32.24 8.59,15.13 9.61,10.53 21.58,20.57 -0.01,9.88 -3.94,34.23 19.18,35l0.26 -35c12.92,-11.86 9.89,0.95 26.29,-29.73 18.7,-34.97 -3.62,-24.85 -5.76,-25.48 3.76,-9.27 20.33,-48.08 -7.41,-27.27z"/>
  <path class="fil0" d="M343.6 323.65c0.57,-0.43 1.22,-1.07 1.6,-1.44 12.14,-12.04 33.67,-50.97 78.39,-26.57 44.35,24.2 29.4,119.32 31.09,143.29l29.87 -4.66 -1.17 -121.75c-10.18,-7.81 -12.6,1.71 -39.21,-30.44 -48.31,-58.39 -89.93,-34.79 -100.57,41.58z"/>
  <path class="fil2" d="M228.56 809.81l60.87 -0.04c7.22,-5.77 19.6,-14.4 10.15,-30.14 -6.79,-11.31 -23.32,-8.34 -39.43,-8.31 -14.92,0.02 -32.94,-3.22 -40.33,7.33 -10.82,15.43 1.68,24.21 8.74,31.17z"/>
  <path class="fil2" d="M630.88 810.46c19.05,-1.56 41.74,-1.29 61.79,-0.69 7.31,-5.76 19.54,-14.44 10.15,-30.14 -6.54,-10.94 -21.64,-8.37 -37.03,-8.32 -9.63,0.04 -54.91,-6.34 -45.27,25.21 1.09,3.56 2.58,5.01 4.87,7.77l5.49 6.17z"/>
  <g id="_3068036890912">
   <path class="fil1" d="M521.38 643.64c16.8,-8.31 15.9,-8.09 29.07,-23.05 8.37,-9.51 5.82,-7.96 11.19,-15.17l9.44 -15.97c-21.62,-6.26 -22.13,3.82 -29.28,1.56 -1.68,-6.79 10.49,-9.27 17,-9.43 14.52,-0.35 22.47,12.82 39.57,-9.89 2.21,-2.94 4,-4.83 6.89,-7.08 2.98,-2.31 5.99,-3.7 4.44,-8.26 -5.37,-4.5 -34.33,4.35 -40.99,6.52 -13.01,4.25 -24.88,9.72 -35.26,15.89 -13.87,8.24 -31.73,23.82 -39.85,36.87 -2.41,3.87 -8.39,11.68 -9.31,16.42 5.89,6.72 14.67,12.68 27.73,13.11l9.37 -1.53z"/>
   <path class="fil1" d="M526.49 575c1.23,-20.19 -8.04,-50.04 -16.35,-68.56 -1.48,-3.29 -2.02,-8.15 -6.77,-6.61 -3.34,1.08 -2.79,6.15 -3.61,10.4 -1.37,7.06 -5.4,15.65 -5.07,22.6 0.45,9.33 6.46,12.72 9.8,17.97 4.37,6.87 7.81,21.59 1.22,19.12 -3.73,-1.4 -1,-12.68 -8.89,-19.03 -4.96,8.29 -11.05,22.5 -14.32,32.73 -5.14,16.09 -5.6,22.66 -3.27,39.62l3.35 -3.96c0.81,-1.29 1.36,-2.22 2.44,-3.75 1.68,-2.39 2.69,-4.43 4.75,-6.85 2.39,-2.8 2.62,-3.77 5.15,-6.45 1.97,-2.09 3.21,-4.07 5.33,-6.27 4.52,-4.7 20.11,-18.09 26.25,-20.95z"/>
   <path class="fil0" d="M481.87 641.33c-8.33,16.89 -17.9,24.52 -4.76,32.16 7.61,4.43 12.27,1.63 15.95,-4.97 2.59,-4.65 7.12,-12.15 8.65,-16.74 -3.79,-0.55 -7.76,-2.67 -10.87,-4.45 -3.71,-2.13 -5.94,-4.73 -8.97,-6z"/>
   <path class="fil0" d="M552.54 526.69c-2.61,-2.13 -10.82,-8.02 -15.14,-7.34 -3.48,0.54 -9.69,10.75 -8.54,14.83 0.76,2.7 10.92,8.85 15.18,8.21 3.95,-0.59 3.93,-3.13 5.73,-6.16 1.3,-2.19 1.93,-2.14 2.56,-4.38l0.32 -2.03c0.1,-1.57 0.02,-1.62 -0.11,-3.14z"/>
   <path class="fil0" d="M559.5 531.82c-4.85,1.21 -8.79,12.15 -8.02,14.53 0.97,3.01 11.1,9.48 15.75,8.37 3.23,-0.78 9.06,-10.87 7.51,-15.29 -1.02,-2.91 -11.42,-8.57 -15.24,-7.61z"/>
   <path class="fil0" d="M569.55 513.28c-3.71,1.74 -8.84,8.51 -5.22,13.28 1.32,1.74 10.04,7.06 13.63,6.28 3.26,-0.71 8.34,-9.16 4.78,-13.69 -1.34,-1.71 -9.95,-7.39 -13.2,-5.87z"/>
   <path class="fil0" d="M546.98 501.78c-1.89,2.25 -8.26,8.12 -4.71,12.8 1.4,1.84 10.27,6.93 14.15,6.08 2.95,-0.65 8.51,-8.54 5.48,-13.25 -1.42,-2.21 -9.54,-5.99 -14.92,-5.62z"/>
   <path class="fil0" d="M573.62 507.37c3.51,2.84 12.43,10.3 16.47,3.34l0.74 -1.65c5.31,-12.66 -9.6,-14.55 -10.93,-14.29 -4.37,0.84 -6.78,6.99 -6.28,12.6z"/>
   <path class="fil0" d="M558.06 485.59c-3,1.92 -7.43,8.74 -3.15,12.56 0.33,0.3 8.83,6.15 12.89,3.51 2.34,-1.52 6.93,-8.48 3.98,-12.66 -1.68,-2.39 -10,-5.78 -13.72,-3.41z"/>
   <path class="fil0" d="M571.59 468.14c-11.31,4.58 -4.56,18.83 5.35,15.57 2.67,-0.88 6.33,-6.69 5.94,-10.4 -0.46,-4.39 -6.87,-6.96 -11.29,-5.17z"/>
   <path class="fil0" d="M588.78 476.82c-1.93,0.9 -6.58,7.12 -5.44,10.64 0.8,2.48 6.76,7.31 10.78,6.41 3.24,-0.72 6.4,-7 5.54,-11.08 -0.69,-3.31 -6.1,-8.19 -10.88,-5.96z"/>
   <path class="fil0" d="M589.35 526.92c-2.28,1.49 -6.34,6.2 -4.51,10.92 1.03,2.66 7.12,6.83 11.36,4.67 2.32,-1.18 5.43,-7.79 3.75,-11.16 -1.39,-2.8 -6.91,-6.84 -10.6,-4.43z"/>
   <path class="fil0" d="M529.54 494.16c-12.31,5.89 -3.11,18.54 5.32,14.94 2.5,-1.07 6.72,-6.26 5.08,-10.68 -1.02,-2.77 -6.6,-6.08 -10.4,-4.26z"/>
   <path class="fil0" d="M596.98 509.77c-9.69,5.39 -1.16,17.12 6.19,14.05 8.98,-3.74 0.78,-17.94 -6.19,-14.05z"/>
   <path class="fil0" d="M599.82 458.32c-7.67,2.68 -9.18,17.58 1.46,15.06 3.45,-0.82 5.02,-5.48 5.42,-8.88 0.5,-4.25 -3.31,-7.43 -6.88,-6.19z"/>
   <path class="fil0" d="M592.18 452.93c-3.62,-2.73 -5.8,-3.77 -9.59,-0.05 -10.47,10.28 1.62,14.99 6.08,11.51 2.85,-2.22 4.18,-6.74 3.51,-11.46z"/>
   <path class="fil0" d="M548.52 480.48c-15.22,-4.27 -14.87,7.85 -10.33,10.35 7.33,4.05 15.83,-0.05 10.33,-10.35z"/>
   <path class="fil0" d="M539.67 566.79c6.26,-2.29 12.53,-5.56 19.28,-8.28 -1.7,-2.64 -8.67,-7.45 -13.04,-4.46 -2.09,1.43 -6.36,9.6 -6.25,12.74z"/>
   <path class="fil0" d="M532.1 553.39c0.48,3.1 0.51,7.51 1.93,9.8 6.26,-4.19 12.03,-18.65 -3.28,-20.43 -0.03,4.38 0.71,6.47 1.35,10.63z"/>
   <path class="fil0" d="M604.01 492.67c-8.63,4.4 -1.69,14.38 4.48,11.74 6.28,-2.68 3.37,-15.74 -4.48,-11.74z"/>
   <path class="fil0" d="M551.32 466.47c-6.82,5.25 0.68,13.29 7.01,9.4 6.96,-4.28 0.46,-15.15 -7.01,-9.4z"/>
   <path class="fil0" d="M525.66 525.75c1.59,-1.52 5.03,-6.05 4.03,-9.36 -1.04,-3.44 -5.28,-5.84 -9.26,-5.59 0.05,2.77 4,11.82 5.23,14.95z"/>
   <path class="fil0" d="M576.35 552.46c4.2,-0.19 4.57,-0.54 7.57,-1.29 2.26,-0.56 4.92,-0.73 6.67,-2.01 -0.73,-2.34 -5.27,-4.99 -8.43,-4.59 -3.75,0.47 -5.4,4.29 -5.81,7.88z"/>
   <path class="fil0" d="M606.69 481.77c4.8,5.66 3.65,4.8 5.88,4.22 0.1,-0.2 0.25,-0.71 0.29,-0.61 0.03,0.1 0.21,-0.45 0.25,-0.63 0.58,-2.67 0.21,-7.87 -0.64,-10.01 -1.66,-4.18 0.13,-1.42 -2.52,-2.57 -2.3,2.37 -3.21,6.33 -3.25,9.6z"/>
   <path class="fil0" d="M561.63 459.31l4.1 1.27c1.56,0.09 3.47,-0.07 5.03,-0.17 1.92,-2.92 4.41,-3.96 4.34,-8.07 -3.8,-0.14 -7.73,1.9 -10.84,3.79 -2.69,1.63 -1.91,0.72 -2.62,3.19z"/>
   <path class="fil3" d="M701 454.74c-9.05,-9.04 -7.26,-1.07 -13.46,-15.62 -16.51,-38.77 -30.97,-23.07 -40.82,-34.61 -2.11,-2.47 2.42,5.4 -1.88,-3.95l-1.29 -3.35c-35.19,-2.18 -51.41,18.04 -57.49,46.7 19.49,2.92 18.17,4.59 25.53,16.1 2.32,-2.84 3.26,-2.58 23.34,-5.46l8.86 -3c1.88,-6.36 21.64,21.12 57.2,3.2z"/>
  </g>
  <g id="_3068036925280">
   <path class="fil1" d="M416.43 518.05c-16.8,-8.31 -15.9,-8.09 -29.07,-23.05 -8.37,-9.51 -5.82,-7.96 -11.19,-15.17l-9.44 -15.97c21.62,-6.26 22.13,3.82 29.28,1.56 1.68,-6.79 -10.49,-9.27 -17,-9.43 -14.52,-0.35 -22.47,12.82 -39.57,-9.89 -2.21,-2.94 -4,-4.83 -6.89,-7.08 -2.98,-2.31 -5.99,-3.7 -4.44,-8.26 5.37,-4.5 34.33,4.35 40.99,6.52 13.01,4.25 24.88,9.72 35.26,15.89 13.86,8.24 31.73,23.82 39.85,36.87 2.41,3.87 8.39,11.68 9.31,16.42 -5.89,6.72 -14.67,12.68 -27.73,13.11l-9.37 -1.53z"/>
   <path class="fil1" d="M411.31 449.41c-1.23,-20.19 8.04,-50.04 16.35,-68.56 1.48,-3.29 2.02,-8.15 6.77,-6.61 3.34,1.08 2.79,6.15 3.61,10.4 1.37,7.06 5.4,15.65 5.07,22.6 -0.45,9.33 -6.46,12.72 -9.8,17.96 -4.37,6.87 -7.81,21.59 -1.22,19.12 3.73,-1.4 1,-12.68 8.89,-19.03 4.96,8.29 11.05,22.5 14.32,32.73 5.14,16.09 5.6,22.66 3.27,39.62l-3.35 -3.96c-0.81,-1.29 -1.36,-2.22 -2.44,-3.75 -1.68,-2.39 -2.69,-4.43 -4.75,-6.85 -2.39,-2.8 -2.62,-3.77 -5.15,-6.45 -1.97,-2.09 -3.21,-4.07 -5.33,-6.27 -4.52,-4.7 -20.11,-18.09 -26.25,-20.95z"/>
   <path class="fil0" d="M455.94 515.74c8.33,16.89 17.9,24.52 4.76,32.16 -7.61,4.42 -12.27,1.63 -15.95,-4.97 -2.59,-4.65 -7.12,-12.15 -8.65,-16.74 3.79,-0.55 7.76,-2.67 10.87,-4.45 3.71,-2.13 5.94,-4.73 8.97,-6z"/>
   <path class="fil0" d="M385.27 401.1c2.61,-2.13 10.82,-8.02 15.14,-7.34 3.48,0.54 9.69,10.75 8.54,14.83 -0.76,2.69 -10.92,8.85 -15.18,8.21 -3.95,-0.59 -3.93,-3.13 -5.73,-6.16 -1.31,-2.19 -1.93,-2.14 -2.56,-4.38l-0.32 -2.03c-0.1,-1.57 -0.02,-1.62 0.11,-3.14z"/>
   <path class="fil0" d="M378.3 406.23c4.85,1.21 8.79,12.15 8.02,14.53 -0.97,3.01 -11.1,9.48 -15.75,8.37 -3.23,-0.78 -9.06,-10.87 -7.51,-15.29 1.02,-2.91 11.42,-8.57 15.24,-7.61z"/>
   <path class="fil0" d="M368.25 387.69c3.71,1.74 8.84,8.51 5.22,13.28 -1.33,1.74 -10.04,7.06 -13.63,6.28 -3.26,-0.71 -8.34,-9.16 -4.78,-13.69 1.34,-1.71 9.95,-7.39 13.2,-5.87z"/>
   <path class="fil0" d="M390.82 376.18c1.89,2.25 8.26,8.12 4.71,12.8 -1.4,1.84 -10.27,6.93 -14.15,6.08 -2.95,-0.65 -8.51,-8.54 -5.48,-13.25 1.42,-2.21 9.54,-5.99 14.92,-5.62z"/>
   <path class="fil0" d="M364.19 381.78c-3.51,2.84 -12.43,10.3 -16.47,3.34l-0.74 -1.65c-5.31,-12.66 9.6,-14.55 10.93,-14.29 4.37,0.84 6.78,6.99 6.28,12.6z"/>
   <path class="fil0" d="M379.75 359.99c3,1.92 7.43,8.74 3.15,12.56 -0.33,0.3 -8.83,6.15 -12.89,3.51 -2.34,-1.52 -6.93,-8.48 -3.98,-12.66 1.68,-2.39 10,-5.78 13.72,-3.41z"/>
   <path class="fil0" d="M366.22 342.55c11.31,4.58 4.56,18.83 -5.35,15.57 -2.67,-0.88 -6.33,-6.69 -5.94,-10.4 0.46,-4.39 6.87,-6.96 11.29,-5.17z"/>
   <path class="fil0" d="M349.02 351.23c1.93,0.9 6.58,7.12 5.44,10.64 -0.8,2.48 -6.76,7.31 -10.78,6.41 -3.24,-0.72 -6.4,-7 -5.54,-11.08 0.69,-3.31 6.1,-8.19 10.88,-5.97z"/>
   <path class="fil0" d="M348.46 401.33c2.28,1.49 6.34,6.2 4.51,10.92 -1.03,2.66 -7.12,6.83 -11.36,4.67 -2.32,-1.18 -5.43,-7.79 -3.75,-11.16 1.39,-2.8 6.91,-6.84 10.6,-4.43z"/>
   <path class="fil0" d="M408.26 368.57c12.31,5.89 3.11,18.54 -5.32,14.94 -2.5,-1.07 -6.72,-6.26 -5.08,-10.68 1.02,-2.77 6.6,-6.08 10.4,-4.26z"/>
   <path class="fil0" d="M340.82 384.18c9.69,5.39 1.16,17.12 -6.19,14.05 -8.98,-3.74 -0.78,-17.94 6.19,-14.05z"/>
   <path class="fil0" d="M337.98 332.73c7.67,2.68 9.18,17.58 -1.46,15.06 -3.45,-0.82 -5.02,-5.47 -5.42,-8.88 -0.5,-4.25 3.31,-7.43 6.88,-6.19z"/>
   <path class="fil0" d="M345.62 327.34c3.62,-2.73 5.8,-3.77 9.59,-0.05 10.47,10.28 -1.62,14.99 -6.08,11.51 -2.85,-2.22 -4.18,-6.74 -3.51,-11.46z"/>
   <path class="fil0" d="M389.28 354.89c15.22,-4.27 14.87,7.85 10.33,10.35 -7.33,4.05 -15.83,-0.05 -10.33,-10.35z"/>
   <path class="fil0" d="M398.14 441.2c-6.26,-2.29 -12.53,-5.56 -19.28,-8.28 1.7,-2.64 8.67,-7.45 13.04,-4.46 2.09,1.43 6.36,9.6 6.25,12.74z"/>
   <path class="fil0" d="M405.7 427.8c-0.48,3.1 -0.51,7.51 -1.93,9.8 -6.26,-4.19 -12.03,-18.65 3.28,-20.43 0.03,4.38 -0.71,6.47 -1.35,10.63z"/>
   <path class="fil0" d="M333.8 367.08c8.63,4.4 1.69,14.38 -4.48,11.74 -6.28,-2.68 -3.37,-15.74 4.48,-11.74z"/>
   <path class="fil0" d="M386.49 340.88c6.82,5.25 -0.68,13.29 -7.01,9.4 -6.96,-4.28 -0.47,-15.15 7.01,-9.4z"/>
   <path class="fil0" d="M412.14 400.16c-1.59,-1.52 -5.03,-6.05 -4.03,-9.36 1.04,-3.44 5.28,-5.84 9.26,-5.59 -0.05,2.77 -4,11.82 -5.23,14.95z"/>
   <path class="fil0" d="M361.46 426.87c-4.2,-0.19 -4.57,-0.54 -7.57,-1.29 -2.26,-0.56 -4.92,-0.73 -6.67,-2.01 0.73,-2.34 5.27,-4.99 8.43,-4.59 3.75,0.47 5.4,4.29 5.81,7.88z"/>
   <path class="fil0" d="M331.12 356.18c-4.8,5.66 -3.65,4.8 -5.88,4.22 -0.1,-0.2 -0.25,-0.71 -0.29,-0.61 -0.03,0.1 -0.21,-0.45 -0.25,-0.63 -0.58,-2.67 -0.21,-7.87 0.64,-10.01 1.66,-4.18 -0.13,-1.42 2.51,-2.57 2.3,2.36 3.21,6.33 3.26,9.6z"/>
   <path class="fil0" d="M376.18 333.72l-4.1 1.27c-1.56,0.09 -3.47,-0.07 -5.03,-0.17 -1.92,-2.92 -4.41,-3.96 -4.34,-8.07 3.8,-0.14 7.73,1.9 10.84,3.79 2.69,1.63 1.91,0.72 2.62,3.19z"/>
   <path class="fil3" d="M236.8 329.15c9.05,-9.04 7.26,-1.07 13.46,-15.62 16.51,-38.77 30.97,-23.07 40.83,-34.61 2.11,-2.47 -2.42,5.4 1.88,-3.95l1.29 -3.35c35.19,-2.18 51.41,18.04 57.49,46.7 -19.49,2.92 -18.17,4.59 -25.54,16.1 -2.32,-2.84 -3.26,-2.58 -23.34,-5.46l-8.86 -3c-1.89,-6.36 -21.64,21.12 -57.2,3.2z"/>
  </g>
  <g id="_3067562990672">
   <path class="fil4" d="M513.86 388.61c15.82,-7.83 14.98,-7.62 27.38,-21.71 7.88,-8.96 5.48,-7.5 10.54,-14.29l8.89 -15.04c-20.37,-5.9 -20.85,3.6 -27.58,1.47 -1.59,-6.4 9.88,-8.73 16.02,-8.88 13.68,-0.33 21.17,12.07 37.27,-9.32 2.08,-2.77 3.77,-4.55 6.49,-6.67 2.8,-2.18 5.64,-3.49 4.18,-7.78 -5.06,-4.24 -32.34,4.1 -38.61,6.15 -12.26,4 -23.43,9.15 -33.22,14.96 -13.06,7.76 -29.89,22.44 -37.54,34.73 -2.27,3.64 -7.9,11 -8.77,15.46 5.55,6.33 13.82,11.94 26.12,12.35l8.83 -1.44z"/>
   <path class="fil1" d="M518.67 323.95c1.16,-19.02 -7.57,-47.14 -15.4,-64.59 -1.39,-3.1 -1.9,-7.67 -6.38,-6.23 -3.14,1.02 -2.62,5.79 -3.4,9.8 -1.29,6.65 -5.09,14.74 -4.77,21.29 0.42,8.78 6.09,11.98 9.23,16.92 4.12,6.47 7.36,20.34 1.15,18.01 -3.52,-1.32 -0.94,-11.94 -8.38,-17.93 -4.67,7.81 -10.41,21.2 -13.49,30.83 -4.84,15.16 -5.27,21.35 -3.08,37.33l3.15 -3.73c0.76,-1.22 1.28,-2.09 2.3,-3.53 1.58,-2.25 2.53,-4.17 4.48,-6.45 2.25,-2.64 2.47,-3.55 4.85,-6.08 1.85,-1.97 3.02,-3.83 5.02,-5.91 4.25,-4.43 18.94,-17.04 24.72,-19.74z"/>
   <path class="fil0" d="M476.64 386.43c-7.85,15.91 -16.86,23.1 -4.49,30.29 7.16,4.17 11.56,1.53 15.03,-4.69 2.44,-4.38 6.71,-11.45 8.15,-15.77 -3.57,-0.51 -7.31,-2.51 -10.24,-4.2 -3.49,-2.01 -5.59,-4.46 -8.45,-5.65z"/>
   <path class="fil0" d="M543.21 278.44c-2.45,-2.01 -10.2,-7.55 -14.27,-6.91 -3.27,0.51 -9.13,10.13 -8.04,13.97 0.72,2.54 10.28,8.33 14.3,7.73 3.72,-0.55 3.7,-2.95 5.4,-5.8 1.23,-2.06 1.82,-2.02 2.41,-4.13l0.3 -1.91c0.1,-1.48 0.02,-1.53 -0.1,-2.95z"/>
   <path class="fil0" d="M549.77 283.27c-4.57,1.14 -8.28,11.45 -7.55,13.69 0.91,2.83 10.46,8.93 14.83,7.88 3.04,-0.73 8.53,-10.24 7.07,-14.4 -0.96,-2.75 -10.76,-8.07 -14.35,-7.17z"/>
   <path class="fil0" d="M559.24 265.81c-3.5,1.64 -8.33,8.01 -4.91,12.51 1.25,1.64 9.46,6.65 12.84,5.91 3.07,-0.67 7.86,-8.62 4.5,-12.9 -1.26,-1.61 -9.37,-6.96 -12.43,-5.53z"/>
   <path class="fil0" d="M537.98 254.97c-1.78,2.12 -7.78,7.65 -4.44,12.05 1.32,1.74 9.67,6.53 13.33,5.72 2.78,-0.61 8.02,-8.04 5.16,-12.48 -1.34,-2.08 -8.99,-5.65 -14.05,-5.3z"/>
   <path class="fil0" d="M563.07 260.24c3.31,2.68 11.71,9.7 15.51,3.14l0.69 -1.55c5,-11.92 -9.05,-13.71 -10.29,-13.46 -4.12,0.79 -6.39,6.59 -5.91,11.87z"/>
   <path class="fil0" d="M548.41 239.72c-2.82,1.81 -7,8.23 -2.97,11.83 0.32,0.28 8.32,5.79 12.14,3.3 2.2,-1.43 6.53,-7.99 3.75,-11.93 -1.59,-2.25 -9.42,-5.44 -12.92,-3.21z"/>
   <path class="fil0" d="M561.15 223.29c-10.65,4.32 -4.29,17.73 5.04,14.66 2.52,-0.83 5.96,-6.3 5.59,-9.79 -0.44,-4.14 -6.47,-6.56 -10.64,-4.87z"/>
   <path class="fil0" d="M577.35 231.46c-1.82,0.85 -6.2,6.7 -5.13,10.02 0.75,2.33 6.37,6.88 10.16,6.04 3.05,-0.68 6.02,-6.6 5.22,-10.44 -0.65,-3.12 -5.75,-7.72 -10.25,-5.62z"/>
   <path class="fil0" d="M577.88 278.66c-2.15,1.41 -5.97,5.84 -4.25,10.29 0.97,2.51 6.71,6.44 10.7,4.4 2.18,-1.12 5.12,-7.34 3.53,-10.52 -1.31,-2.64 -6.51,-6.44 -9.99,-4.17z"/>
   <path class="fil0" d="M521.55 247.8c-11.6,5.55 -2.93,17.47 5.01,14.07 2.35,-1 6.33,-5.9 4.79,-10.06 -0.97,-2.61 -6.22,-5.73 -9.8,-4.01z"/>
   <path class="fil0" d="M585.07 262.51c-9.12,5.08 -1.09,16.13 5.83,13.24 8.46,-3.53 0.73,-16.9 -5.83,-13.24z"/>
   <path class="fil0" d="M587.75 214.04c-7.23,2.53 -8.65,16.56 1.38,14.19 3.25,-0.77 4.73,-5.16 5.11,-8.36 0.47,-4 -3.12,-7 -6.48,-5.83z"/>
   <path class="fil0" d="M580.55 208.96c-3.41,-2.57 -5.46,-3.55 -9.03,-0.05 -9.86,9.68 1.53,14.12 5.73,10.84 2.69,-2.09 3.93,-6.35 3.31,-10.8z"/>
   <path class="fil0" d="M539.43 234.91c-14.33,-4.02 -14,7.39 -9.73,9.75 6.9,3.82 14.91,-0.04 9.73,-9.75z"/>
   <path class="fil0" d="M531.08 316.21c5.89,-2.16 11.81,-5.24 18.17,-7.8 -1.6,-2.48 -8.17,-7.02 -12.28,-4.2 -1.97,1.35 -5.99,9.04 -5.88,12.01z"/>
   <path class="fil0" d="M523.96 303.6c0.45,2.92 0.48,7.08 1.81,9.23 5.89,-3.95 11.33,-17.57 -3.09,-19.25 -0.02,4.13 0.67,6.1 1.27,10.01z"/>
   <path class="fil0" d="M591.69 246.4c-8.13,4.14 -1.6,13.55 4.22,11.06 5.92,-2.53 3.17,-14.83 -4.22,-11.06z"/>
   <path class="fil0" d="M542.06 221.72c-6.43,4.95 0.64,12.52 6.6,8.85 6.55,-4.03 0.44,-14.28 -6.6,-8.85z"/>
   <path class="fil0" d="M517.89 277.56c1.5,-1.43 4.74,-5.69 3.79,-8.82 -0.98,-3.24 -4.98,-5.5 -8.72,-5.27 0.04,2.61 3.77,11.14 4.93,14.08z"/>
   <path class="fil0" d="M565.64 302.72c3.95,-0.17 4.31,-0.51 7.13,-1.21 2.13,-0.53 4.64,-0.69 6.28,-1.89 -0.69,-2.21 -4.96,-4.7 -7.94,-4.32 -3.53,0.44 -5.09,4.04 -5.47,7.42z"/>
   <path class="fil0" d="M594.22 236.13c4.52,5.33 3.44,4.52 5.53,3.97 0.1,-0.19 0.24,-0.67 0.27,-0.57 0.03,0.1 0.2,-0.43 0.24,-0.59 0.55,-2.52 0.2,-7.41 -0.61,-9.43 -1.56,-3.93 0.12,-1.33 -2.37,-2.42 -2.17,2.23 -3.02,5.96 -3.07,9.04z"/>
   <path class="fil0" d="M551.77 214.97l3.86 1.2c1.47,0.08 3.26,-0.07 4.74,-0.17 1.81,-2.75 4.15,-3.73 4.08,-7.6 -3.58,-0.13 -7.28,1.79 -10.21,3.57 -2.54,1.54 -1.79,0.68 -2.47,3z"/>
   <path class="fil3" d="M683.06 210.67c-8.52,-8.51 -6.84,-1.01 -12.67,-14.71 -15.56,-36.52 -29.17,-21.73 -38.46,-32.6 -1.99,-2.33 2.28,5.09 -1.77,-3.72l-1.22 -3.16c-33.15,-2.05 -48.43,16.99 -54.16,43.99 18.36,2.75 17.12,4.32 24.05,15.16 2.18,-2.67 3.07,-2.43 21.99,-5.14l8.35 -2.83c1.78,-5.99 20.38,19.9 53.88,3.01z"/>
  </g>
  <rect class="fil5" y="-0" width="921.8" height="921.8"/>
 </g>
</svg>
