<?xml version="1.0" encoding="UTF-8"?>
<svg version="1.1" xmlns="http://www.w3.org/2000/svg" width="1604" height="1604">
<path d="M0 0 C1.56387148 -0.00087448 3.12774266 -0.00262989 4.6916123 -0.00517833 C8.94475226 -0.00960832 13.19778972 -0.0017088 17.45091665 0.00837779 C22.05396775 0.01707341 26.65701379 0.01408784 31.2600708 0.01257324 C39.22052297 0.01152823 47.18094216 0.01776453 55.14138603 0.02904892 C66.6506257 0.04535325 78.15984955 0.05051696 89.66909952 0.0530249 C108.34537244 0.05739429 127.02162783 0.07068281 145.69789124 0.08963013 C163.83233045 0.10800855 181.96676489 0.12215544 200.10121155 0.13064575 C201.22038103 0.1311712 202.33955052 0.13169665 203.49263423 0.13223802 C209.10758547 0.13484823 214.72253675 0.13737561 220.33748806 0.13986182 C266.86559358 0.16057075 313.39367997 0.19577561 359.92176819 0.24050903 C360.50460601 8.86168179 361.06895706 17.45452 361.07998657 26.09902954 C361.08492455 26.96616278 361.08986253 27.83329602 361.09495014 28.72670603 C361.11002483 31.56528984 361.11860204 34.40385167 361.12709045 37.24246216 C361.13669277 39.30391119 361.14670413 41.36535835 361.15708923 43.42680359 C361.18388981 48.97318777 361.20503227 54.51958025 361.22509122 60.06599236 C361.24710591 65.88089343 361.27441813 71.69576967 361.30114746 77.51065063 C361.35086666 88.49967879 361.39588169 99.48872088 361.43916982 110.47777605 C361.48872086 122.99787696 361.54357217 135.51795294 361.59884942 148.03802967 C361.71235016 173.77216615 361.81925745 199.50632659 361.92176819 225.24050903 C363.04447181 224.12681058 364.16588708 223.01181327 365.28675842 221.89627075 C365.91138474 221.27549652 366.53601105 220.65472229 367.17956543 220.01513672 C369.25649621 217.89955124 371.13484503 215.68203496 372.98426819 213.36550903 C373.73965881 212.42707153 374.49504944 211.48863403 375.27333069 210.52175903 C375.68873108 210.00484497 376.10413147 209.48793091 376.53211975 208.95535278 C378.09363867 207.02841868 379.67397235 205.11797553 381.25770569 203.20925903 C387.43632569 195.76121039 393.49633229 188.26346677 399.35536194 180.56082153 C403.41458409 175.26562344 407.66974563 170.12568965 411.89051819 164.95925903 C414.30026618 162.00939512 416.681474 159.03870825 419.04676819 156.05300903 C425.96934953 147.38156503 433.17936753 138.95018849 440.65614319 130.75222778 C441.9164958 129.3549748 443.16992231 127.95105759 444.39466858 126.52249146 C449.29767296 120.81461239 454.52810425 115.48517674 459.85926819 110.17800903 C460.71456116 109.31884888 461.56985413 108.45968872 462.45106506 107.57449341 C467.44551005 102.58766772 472.53886303 97.80429144 477.92176819 93.24050903 C478.5462384 92.70401733 479.17070862 92.16752563 479.81410217 91.61477661 C496.36651741 77.46427575 514.11189996 65.19314327 532.92176819 54.24050903 C533.64541565 53.81817993 534.36906311 53.39585083 535.11463928 52.96072388 C584.88373852 24.12721279 640.74615286 8.08545265 697.92176819 3.24050903 C699.19407288 3.1283606 700.46637756 3.01621216 701.77723694 2.90066528 C801.32104844 -4.38789865 902.45057351 25.56780587 999.00453186 100.8833313 C1003.22607126 104.55290187 1007.20717286 108.41104994 1011.10536194 112.42410278 C1012.97854833 114.36942789 1012.97854833 114.36942789 1015.54676819 116.30300903 C1018.4353986 118.65952332 1020.69467522 121.34710694 1023.10926819 124.17800903 C1024.76858568 126.0661979 1026.48718005 127.81044268 1028.29676819 129.55300903 C1031.97400495 133.18132468 1035.20039506 137.10671276 1038.42958069 141.13504028 C1040.1337374 143.25855845 1041.85058214 145.35610053 1043.60145569 147.43972778 C1052.97504805 158.71448399 1061.04721268 170.88495647 1068.92176819 183.24050903 C1069.38067444 183.95593872 1069.83958069 184.67136841 1070.31239319 185.40847778 C1071.45301819 187.27175903 1071.45301819 187.27175903 1072.92176819 190.24050903 C1071.61084863 194.1732677 1070.23888328 194.42852197 1066.61317444 196.32254028 C1064.9239386 197.21501465 1064.9239386 197.21501465 1063.20057678 198.1255188 C1061.96183916 198.76807706 1060.72306875 199.41057213 1059.48426819 200.05300903 C1058.20848977 200.72375653 1056.93326855 201.39556481 1055.65858459 202.06838989 C1053.03129584 203.45436934 1050.40186063 204.83614342 1047.77088928 206.21511841 C1042.08833096 209.19879381 1036.44331321 212.25188892 1030.79676819 215.30300903 C1028.64845645 216.4607945 1026.50001877 217.61834631 1024.35145569 218.77566528 C1023.29152405 219.3468811 1022.23159241 219.91809692 1021.13954163 220.50662231 C1016.81859371 222.834951 1012.49692271 225.16193559 1008.17518616 227.48880005 C1006.01008445 228.65453656 1003.84504515 229.82038902 1001.68006897 230.98635864 C996.21475297 233.92969589 990.74866647 236.87158632 985.28114319 239.81082153 C975.18754332 245.23856818 965.10119814 250.67799206 955.04676819 256.17800903 C946.77794452 260.70011663 938.4818782 265.1697659 930.17176819 269.61550903 C929.29447556 270.0848436 929.29447556 270.0848436 928.39945984 270.56365967 C927.21715708 271.19612901 926.03485015 271.82859054 924.85253906 272.46104431 C924.26565811 272.77498642 923.67877716 273.08892853 923.07411194 273.41238403 C922.48622391 273.72684982 921.89833588 274.04131561 921.29263306 274.36531067 C914.76821838 277.85616164 908.25032632 281.3590891 901.73426819 284.86550903 C900.67820374 285.43317993 899.62213928 286.00085083 898.53407288 286.58572388 C897.53408264 287.1240686 896.53409241 287.66241333 895.50379944 288.21707153 C894.55714417 288.72399536 893.61048889 289.23091919 892.63514709 289.75320435 C890.84931349 290.73208669 889.07975685 291.74137017 887.32948303 292.78250122 C886.14346497 293.48487915 886.14346497 293.48487915 884.93348694 294.20144653 C883.9100116 294.82865601 883.9100116 294.82865601 882.86585999 295.46853638 C880.33981378 296.47159529 879.42041663 296.29378273 876.92176819 295.24050903 C867.93522736 288.95788315 860.42019872 280.88881754 852.81629944 273.05691528 C820.30365987 239.96108936 778.37710716 224.86333152 732.29676819 224.05300903 C701.97325613 224.39031173 672.55534833 231.76985435 645.92176819 246.24050903 C645.01370422 246.72173218 645.01370422 246.72173218 644.08729553 247.212677 C630.9568808 254.18699224 619.70066822 263.02979908 608.92176819 273.24050903 C607.97688538 274.12093872 607.03200256 275.00136841 606.05848694 275.90847778 C593.45541179 287.89395696 583.82627908 301.79995071 575.92176819 317.24050903 C575.60369202 317.85748657 575.28561584 318.47446411 574.957901 319.11013794 C556.65154809 355.10115465 552.45109206 399.08053326 561.92176819 438.24050903 C562.13075745 439.10482544 562.3397467 439.96914185 562.55506897 440.85964966 C570.27423483 471.45877007 586.35645253 497.55747884 607.92176819 520.24050903 C608.84989319 521.26531372 608.84989319 521.26531372 609.79676819 522.31082153 C638.89753942 553.36030512 684.72158458 569.97875817 726.52723694 571.44363403 C765.50517092 572.11151318 804.99185649 561.52587087 835.92176819 537.24050903 C836.846026 536.5199231 837.77028381 535.79933716 838.72254944 535.05691528 C844.86951779 530.15124344 850.45872932 524.88908507 855.92176819 519.24050903 C857.58564546 517.57105763 859.25265952 515.90473012 860.92176819 514.24050903 C862.03261316 513.12999987 863.14328029 512.01931278 864.25379944 510.90847778 C867.47645569 507.68582153 870.69911194 504.46316528 873.92176819 501.24050903 C878.11490814 502.52674591 881.78359691 504.11451632 885.60536194 506.26004028 C886.68543518 506.86324097 887.76550842 507.46644165 888.87831116 508.08792114 C890.02702698 508.73640015 891.1757428 509.38487915 892.35926819 510.05300903 C893.57403654 510.73385405 894.7890467 511.4142678 896.00428772 512.0942688 C904.37858462 516.78572551 912.72891413 521.51997578 921.07826233 526.25564575 C929.40314348 530.96881364 937.7775907 535.59013176 946.15846252 540.2026062 C955.66635085 545.43578238 965.14850021 550.71264337 974.61317444 556.02371216 C982.1643914 560.25987771 989.72706125 564.47497581 997.29676819 568.67800903 C998.41551331 569.29925659 999.53425842 569.92050415 1000.68690491 570.56057739 C1006.396925 573.73057777 1012.10819977 576.89830729 1017.82020569 580.06472778 C1034.57683849 589.35784261 1051.29216446 598.72165116 1067.92176819 608.24050903 C1066.35175154 613.04237281 1063.64357081 616.59501263 1060.60926819 620.55300903 C1060.0801886 621.24942505 1059.55110901 621.94584106 1059.0059967 622.6633606 C1050.6257404 633.62698567 1041.99965483 644.32990885 1032.55458069 654.39675903 C1030.54012347 656.57261194 1028.5933783 658.77188163 1026.66004944 661.01785278 C1022.62923616 665.64400298 1018.33250084 669.97679275 1013.98426819 674.30300903 C1013.22436584 675.06677856 1012.4644635 675.8305481 1011.68153381 676.61746216 C1006.9245671 681.36630425 1002.02557931 685.86896352 996.92176819 690.24050903 C995.82700208 691.20159241 994.73320355 692.1637794 993.64051819 693.12722778 C985.05799877 700.6245403 976.13767913 707.54180585 966.92176819 714.24050903 C966.25306702 714.73019165 965.58436584 715.21987427 964.895401 715.72439575 C895.96965875 766.04981131 812.37769322 794.43946849 726.98426819 794.49050903 C725.96665405 794.49118378 724.94903992 794.49185852 723.90058899 794.49255371 C706.72425079 794.47453716 689.9414559 793.72570632 672.92176819 791.24050903 C671.19748596 790.99107544 671.19748596 790.99107544 669.43836975 790.73660278 C592.81455345 779.22063818 523.36007979 743.42482195 466.43348694 691.50613403 C465.05276246 690.26069049 463.66572192 689.02171471 462.25209045 687.81375122 C456.58305311 682.95478356 451.26271573 677.76762025 445.98597717 672.49002075 C444.49535203 671.00157666 442.99689802 669.52133627 441.49794006 668.04129028 C435.18832274 661.76842221 429.45394182 655.22064549 423.92176819 648.24050903 C422.92147692 647.03177914 421.91805656 645.82562442 420.91004944 644.62332153 C403.56397252 623.63479057 390.88329659 600.18210739 378.41932678 576.12234497 C375.65109294 570.79527743 372.8462407 565.48750176 370.04310608 560.17874146 C369.66017395 559.45275757 369.27724182 558.72677368 368.88270569 557.97879028 C368.55061096 557.35013062 368.21851624 556.72147095 367.87635803 556.07376099 C366.86942091 554.13997816 365.89170891 552.19307473 364.92176819 550.24050903 C364.26176819 550.24050903 363.60176819 550.24050903 362.92176819 550.24050903 C360.91263161 562.17763169 360.65307748 573.8106586 360.71058655 585.89089966 C360.71279266 587.92786077 360.71409427 589.96482303 360.71456909 592.00178528 C360.71748359 596.35919933 360.72666575 600.7165371 360.74087334 605.07392883 C360.76330576 611.97666307 360.77125706 618.87936979 360.77737427 625.78213501 C360.78872035 636.7073213 360.80941939 647.63246593 360.83427197 658.55762911 C360.87867703 678.10885196 360.91188602 697.66008894 360.93451601 717.21134901 C360.94287572 724.06059535 360.95685138 730.90979976 360.97548854 737.75902557 C360.98620217 742.0328116 360.9927402 746.30659729 360.99828911 750.58039284 C361.00173167 752.5478791 361.00691435 754.51536328 361.01405716 756.48283958 C361.11505116 784.95010994 361.11505116 784.95010994 358.92176819 793.24050903 C349.14497343 794.06814325 339.46549382 794.38790216 329.65437317 794.38095093 C328.16606516 794.38354205 326.67775784 794.38655725 325.18945146 794.38995433 C321.1398617 794.39793936 317.09028974 794.39980908 313.04069304 794.4005518 C308.65745438 794.40241723 304.27422463 794.40997163 299.89099121 794.41668701 C290.32686835 794.43020804 280.76274971 794.43628466 271.19861889 794.44069767 C265.21797028 794.44346945 259.23732325 794.44770834 253.25667572 794.45220184 C236.67074561 794.46438404 220.08481677 794.47468692 203.49888229 794.47807693 C201.90995052 794.47840628 201.90995052 794.47840628 200.28891911 794.47874229 C199.22723455 794.47896056 198.16555 794.47917884 197.07169318 794.47940373 C194.92064396 794.47984719 192.76959475 794.48029375 190.61854553 794.48074341 C189.55157221 794.48096484 188.48459889 794.48118627 187.38529304 794.48141441 C170.09713225 794.48536239 152.80901361 794.50282113 135.52086911 794.52610293 C117.73620214 794.54985863 99.9515563 794.56228062 82.16687322 794.56344485 C72.19546663 794.56435899 62.22411505 794.57004571 52.25272369 794.58826447 C43.76323345 794.60372219 35.27381525 794.60875244 26.78431359 794.60052636 C22.46001304 794.5966405 18.13585733 794.59744771 13.81157494 794.61158371 C-42.99902822 794.78637031 -42.99902822 794.78637031 -63.89073181 774.99050903 C-79.50984045 758.24569887 -86.04681665 736.27737297 -85.36338806 713.76785278 C-84.38083895 694.68831117 -78.34851403 680.28508621 -66.04698181 665.61550903 C-65.5347406 664.99337524 -65.02249939 664.37124146 -64.49473572 663.73025513 C-63.48242858 662.50567452 -62.45376575 661.2943976 -61.40782166 660.09841919 C-59.80512137 658.24113348 -59.80512137 658.24113348 -58.07823181 655.24050903 C-58.77475725 650.83364619 -61.80493988 648.00669561 -64.70323181 644.74050903 C-80.80139248 625.95591116 -86.72204804 604.65012633 -85.07823181 580.24050903 C-83.03516877 560.30720318 -73.46145763 545.79086195 -61.26499939 530.46536255 C-59.35724637 528.04520443 -58.0627684 526.19411881 -57.07823181 523.24050903 C-57.69569275 522.66945435 -58.31315369 522.09839966 -58.94932556 521.51004028 C-74.71566006 506.41563481 -84.50920034 488.00636269 -85.28135681 465.86550903 C-85.7568674 437.68923484 -76.34153709 419.43487407 -57.07823181 399.24050903 C-60.05641071 394.55532516 -63.17194878 390.08370934 -66.67222595 385.77005005 C-81.58161315 367.24058294 -87.34779278 345.64530594 -84.84385681 322.03005981 C-81.76080966 299.9162956 -70.61041675 285.27322175 -57.07823181 268.24050903 C-60.36207483 263.75182768 -63.66974536 259.45747374 -67.51573181 255.42800903 C-82.47084671 238.96227647 -86.10182681 220.26884079 -85.23057556 198.59646606 C-83.76023936 175.85809365 -73.43213816 158.49396561 -57.07823181 143.24050903 C-59.81520857 138.22698151 -62.85604734 133.76420679 -66.32823181 129.24050903 C-80.36888693 110.38967297 -88.32446441 89.29174127 -85.65245056 65.43972778 C-82.70373269 45.72754882 -73.22700374 25.32772303 -57.17588806 13.01394653 C-39.90980544 1.61705145 -20.17779602 -0.08529457 0 0 Z " fill="#FCFDFD" transform="translate(308.07823181152344,404.7594909667969)"/>
<path d="M0 0 C4.78942385 0.01053744 9.57885385 0.01486017 14.36828613 0.01983643 C23.63783228 0.03031823 32.90735307 0.04720258 42.17687988 0.06866455 C42.17861613 0.62207449 42.18035238 1.17548442 42.18214124 1.74566436 C42.28569263 34.71551452 42.39391049 67.6853458 42.50799682 100.65516113 C42.52176258 104.63446684 42.53549025 108.61377269 42.54919434 112.59307861 C42.55192264 113.3851202 42.55465094 114.17716178 42.55746192 114.99320462 C42.60125846 127.73380022 42.64198605 140.47440381 42.68153249 153.21501324 C42.72233251 166.33690308 42.76653935 179.45877843 42.81375843 192.58064675 C42.84011274 199.93038429 42.86499244 207.28012012 42.8859539 214.62987518 C42.97173906 244.4530711 43.06134091 274.26248723 44.17687988 304.06866455 C45.9181968 302.35290235 47.65587611 300.63369611 49.39172363 298.91241455 C50.12135315 298.19456787 50.12135315 298.19456787 50.86572266 297.46221924 C54.87118721 293.48188307 58.42081178 289.2244863 61.93859863 284.8069458 C64.2152955 282.02166744 66.60272132 279.39045636 69.05187988 276.75616455 C73.23423977 272.20647875 77.08278917 267.48965973 80.86218262 262.60797119 C84.37293017 258.07404604 87.97614925 253.62570077 91.61437988 249.19366455 C96.42782717 243.30906573 101.05623621 237.31412144 105.58679199 231.20977783 C109.37946866 226.1061367 113.25967308 221.07722712 117.17687988 216.06866455 C122.16703116 209.68365271 127.07524813 203.24505471 131.92346191 196.75177002 C136.15205923 191.09061023 140.43777913 185.47710414 144.76525879 179.89093018 C145.78655787 178.57253233 146.80695072 177.25343232 147.82678223 175.93389893 C157.0169966 164.04575639 166.35895391 152.33510606 176.10266113 140.89459229 C178.91876995 137.58224207 181.65755641 134.22152834 184.36437988 130.81866455 C193.97034413 119.06866259 204.80941259 108.3428159 215.49151611 97.57879639 C216.47275505 96.58952073 217.45250871 95.59876913 218.43060303 94.60638428 C224.26771149 88.69286661 230.26338519 83.19641967 236.75427246 78.00762939 C238.67671646 76.46897674 240.5488884 74.90724071 242.39172363 73.2756958 C257.56996889 59.92667952 274.64205556 49.04159589 292.17687988 39.06866455 C292.93227051 38.63602295 293.68766113 38.20338135 294.46594238 37.75762939 C338.37167393 12.86942835 389.89689994 0.97291297 440.17687988 0.06866455 C441.14786621 0.0428833 442.11885254 0.01710205 443.1192627 -0.00946045 C485.46647466 -1.05668671 526.00233765 4.3628984 566.17687988 18.06866455 C567.67468994 18.57550781 567.67468994 18.57550781 569.20275879 19.09259033 C599.32653304 29.38338436 628.26650026 43.06596707 655.17687988 60.06866455 C656.28031738 60.7647583 657.38375488 61.46085205 658.52062988 62.17803955 C684.48868183 79.07123463 709.9703136 100.07256586 727.17687988 126.06866455 C727.59743652 126.68564209 728.01799316 127.30261963 728.45129395 127.93829346 C729.62219238 129.7756958 729.62219238 129.7756958 731.17687988 133.06866455 C730.35598728 135.75501794 729.50783473 136.84152912 727.18762207 138.43389893 C726.3745459 138.83930908 725.56146973 139.24471924 724.72375488 139.66241455 C723.80602295 140.12897461 722.88829102 140.59553467 721.94274902 141.07623291 C720.94751221 141.56873535 719.95227539 142.06123779 718.92687988 142.56866455 C716.81526546 143.64103958 714.70461034 144.71530537 712.59484863 145.7913208 C710.98295654 146.60947266 710.98295654 146.60947266 709.33850098 147.44415283 C704.59315009 149.88242039 699.91415275 152.43580751 695.23937988 155.00616455 C693.41782703 156.00497506 691.59621179 157.00367179 689.77453613 158.0022583 C688.86075195 158.50354248 687.94696777 159.00482666 687.00549316 159.52130127 C682.07160589 162.22033265 677.12368424 164.89340476 672.17687988 167.56866455 C665.37347595 171.25035213 658.57253133 174.93636709 651.78234863 178.64239502 C649.97644933 179.62704934 648.16917636 180.60918887 646.36047363 181.58868408 C641.57727226 184.18421298 636.83331921 186.83250221 632.12219238 189.5569458 C630.62969971 190.4066394 630.62969971 190.4066394 629.10705566 191.27349854 C627.19746865 192.36194086 625.29680316 193.46623434 623.40686035 194.58843994 C617.04275717 198.18561954 617.04275717 198.18561954 612.88000488 197.62335205 C610.05613808 195.99922057 607.49997237 194.31995871 604.92687988 192.31866455 C603.88016113 191.51557861 602.83344238 190.71249268 601.75500488 189.8850708 C599.18402965 187.87423194 596.63938554 185.83249964 594.09875488 183.7835083 C548.07045654 146.90195836 489.48508149 130.67736595 430.86437988 136.69366455 C391.198412 141.62941073 353.28872255 158.11844205 322.17687988 183.06866455 C320.68221191 184.25782471 320.68221191 184.25782471 319.15734863 185.4710083 C303.85188565 197.89687204 290.5808229 212.0076549 279.17687988 228.06866455 C278.73827637 228.67323486 278.29967285 229.27780518 277.84777832 229.9006958 C249.71985112 268.84373546 236.94320233 317.34268577 239.17687988 365.06866455 C239.22086914 366.01290283 239.2648584 366.95714111 239.31018066 367.92999268 C241.79974474 414.00694061 261.06694837 459.28462814 291.17687988 494.06866455 C291.87039551 494.87303955 292.56391113 495.67741455 293.27844238 496.50616455 C328.14765043 536.06686605 378.01666601 565.13317128 431.17687988 570.06866455 C434.36467384 570.22020252 437.54830186 570.25520827 440.73937988 570.27178955 C441.64019791 570.27875854 442.54101593 570.28572754 443.46913147 570.29290771 C446.37176202 570.31025669 449.27419959 570.31663084 452.17687988 570.31866455 C453.66101883 570.32017517 453.66101883 570.32017517 455.17514038 570.32171631 C470.07258925 570.31144314 484.49068365 569.7636754 499.17687988 567.06866455 C499.98125488 566.93476318 500.78562988 566.80086182 501.61437988 566.66290283 C536.03183819 560.90105155 563.90599283 544.12799751 591.17712402 523.28253174 C593.49331738 521.51982751 595.82608919 519.78490472 598.17687988 518.06866455 C598.88973145 517.54369385 599.60258301 517.01872314 600.33703613 516.47784424 C603.52559669 514.2830618 605.33409286 513.06972868 609.27062988 513.0647583 C612.57049303 514.20463038 615.5663839 515.53738564 618.67687988 517.13116455 C619.3406665 517.47059082 620.00445313 517.81001709 620.68835449 518.159729 C623.19172535 519.44929457 625.68476056 520.75748134 628.17687988 522.06866455 C629.26758789 522.64133057 630.3582959 523.21399658 631.48205566 523.80401611 C660.03150379 538.81786499 688.84573453 554.01789903 715.48937988 572.25616455 C716.12287354 572.68945068 716.75636719 573.12273682 717.40905762 573.56915283 C720.63350376 575.82756513 723.4933548 578.18635983 726.17687988 581.06866455 C724.57204482 585.32452462 721.35518175 587.92743812 718.05187988 590.88116455 C717.46003906 591.41886475 716.86819824 591.95656494 716.25842285 592.51055908 C712.70229457 595.73199293 709.09698185 598.893002 705.46594238 602.02960205 C702.14860131 604.98463966 698.91764869 608.0301235 695.67687988 611.06866455 C690.58912647 615.83429868 685.47237076 620.53385192 680.17687988 625.06866455 C679.16725523 625.95480249 678.15819472 626.84158338 677.14953613 627.7288208 C649.24165809 652.14620575 618.11686417 670.48978383 583.17687988 683.06866455 C581.2770662 683.77289176 579.37732703 684.47732003 577.47766113 685.1819458 C553.59183286 693.90675819 529.30103 698.70015742 504.17687988 702.06866455 C503.20589355 702.20288818 502.23490723 702.33711182 501.23449707 702.47540283 C461.64590404 707.70533402 418.60998634 705.46755303 379.87658691 695.73956299 C377.04509386 695.03591469 374.20494523 694.38178846 371.36047363 693.73272705 C314.9420885 680.60412361 259.37798603 652.79623168 216.65344238 613.33428955 C214.61222191 611.46692697 212.5415551 609.65558252 210.44641113 607.84991455 C205.86466295 603.84970417 201.53685828 599.62072252 197.23937988 595.31866455 C196.44596191 594.52444092 195.65254395 593.73021729 194.83508301 592.91192627 C189.97340557 587.99923122 185.39585342 583.04540896 181.14953613 577.5881958 C179.81119834 575.87883367 178.42030442 574.20959402 176.98547363 572.5803833 C152.34755421 544.53293302 135.63519312 509.93534754 123.17687988 475.06866455 C122.91391113 474.34695068 122.65094238 473.62523682 122.38000488 472.88165283 C115.93968617 455.16630393 112.53150417 436.56595041 109.17687988 418.06866455 C98.43014221 427.93219102 88.14168978 437.78852627 79.05578613 449.24053955 C73.47973788 456.07951191 67.19750159 462.09490787 60.81750488 468.1741333 C46.47172454 482.16440597 43.09483653 495.00795487 42.84875488 514.52960205 C42.84628958 517.83483862 42.88519381 521.13874097 42.92687988 524.44366455 C42.93339562 526.03220139 42.93860182 527.62074414 42.94250488 529.20928955 C42.98284596 537.43488631 43.1535339 545.65426208 43.41271973 553.87579346 C44.11371669 576.23970614 44.33424512 598.57919267 44.30725098 620.95391846 C44.30151346 625.76257302 44.3049846 630.5711728 44.31067276 635.37982559 C44.3448876 669.06110427 44.3448876 669.06110427 43.79406738 685.15460205 C43.76370392 686.1446524 43.73334045 687.13470276 43.70205688 688.15475464 C43.6639389 689.07042206 43.62582092 689.98608948 43.58654785 690.92950439 C43.55592255 691.69032318 43.52529724 692.45114197 43.4937439 693.23501587 C43.00929494 697.56734166 42.07564724 701.80565284 41.17687988 706.06866455 C25.74756425 706.09203071 10.31824994 706.10966201 -5.11107922 706.12047672 C-12.27527139 706.12563177 -19.43945258 706.13265942 -26.6036377 706.144104 C-32.84834386 706.15407498 -39.09304207 706.16052374 -45.33775598 706.16275305 C-48.64390035 706.16405604 -51.95001663 706.16764124 -55.25615501 706.17439461 C-58.94800552 706.18163698 -62.63980859 706.18265413 -66.33166504 706.18218994 C-67.9738073 706.18758286 -67.9738073 706.18758286 -69.64912415 706.19308472 C-70.6572818 706.19171005 -71.66543945 706.19033539 -72.70414734 706.18891907 C-73.57708529 706.18984086 -74.45002325 706.19076265 -75.34941387 706.19171238 C-77.92710559 706.06349207 -80.30095498 705.59807932 -82.82312012 705.06866455 C-82.99523027 648.45587656 -83.15831076 591.8430641 -83.31407577 535.23022878 C-83.32308925 531.95488156 -83.33211747 528.67953438 -83.34114599 525.4041872 C-83.63205667 419.76558245 -83.8759848 314.12726115 -83.88627863 138.55830348 C-83.88561752 135.93333507 -83.88497504 133.30836666 -83.88433456 130.68339825 C-83.87367151 87.47848099 -83.8541596 44.27357216 -83.82312012 1.06866455 C-55.8764907 0.26235805 -27.95763571 -0.06847826 0 0 Z " fill="#13A538" transform="translate(582.8231201171875,448.93133544921875)"/>
<path d="M0 0 C1.2608202 0.00880503 2.5216404 0.01761005 3.82066727 0.0266819 C6.45893346 0.04565461 9.09717269 0.06880892 11.73536682 0.09601593 C16.65557042 0.14408895 21.57563996 0.1622957 26.4960289 0.18024254 C39.55696605 0.23143411 52.61778949 0.32892239 65.6784935 0.42180443 C73.50638899 0.47731843 81.33427203 0.52635802 89.16225696 0.56742036 C94.73921079 0.59722895 100.31608649 0.63445017 105.89295697 0.6770674 C109.19766844 0.70211241 112.50231464 0.72295175 115.80709076 0.73762131 C119.47113157 0.75452147 123.13489125 0.78354658 126.79882812 0.81542969 C127.87105118 0.81758987 128.94327423 0.81975006 130.04798889 0.82197571 C136.21126365 0.89040955 141.68246843 1.57811505 147.65136719 3.13427734 C147.67449456 11.20079908 147.69228428 19.26730707 147.70317936 27.33385372 C147.70840733 31.07910772 147.7155034 34.8243391 147.72680664 38.56958008 C147.73763859 42.18109422 147.74364467 45.79258655 147.74624443 49.40411568 C147.74809812 50.78488064 147.75171768 52.16564435 147.75709724 53.54640007 C147.76431165 55.47403687 147.76477528 57.40169541 147.76489258 59.3293457 C147.76711319 60.42854843 147.7693338 61.52775116 147.7716217 62.66026306 C147.65136719 65.13427734 147.65136719 65.13427734 146.65136719 66.13427734 C130.99529996 69.23339889 114.72640694 68.44653625 98.84120154 68.43585992 C95.64782494 68.4347782 92.45446772 68.43970309 89.26109535 68.44446534 C81.72409714 68.45548992 74.18714881 68.456036 66.65014648 68.44995117 C58.90931651 68.44389764 51.16866766 68.45627351 43.42786855 68.47752124 C36.74118234 68.49519141 30.05455355 68.50113066 23.36784488 68.4978835 C19.39155392 68.49608139 15.41539265 68.49859989 11.43912315 68.51259804 C7.70341445 68.52526312 3.96798751 68.52315134 0.23228264 68.51018715 C-1.77151363 68.50673355 -3.77531889 68.51793068 -5.77908325 68.52975464 C-17.77906479 68.46078382 -28.94524746 66.87995875 -38.06347656 58.57177734 C-45.44825428 50.77171873 -45.94252404 41.28308028 -45.89941406 31.03637695 C-45.6547648 22.36432509 -43.66627011 15.47808214 -37.41503906 9.18896484 C-26.52116263 0.39741544 -13.42101377 -0.18465876 0 0 Z " fill="#112E6A" transform="translate(312.3486328125,831.86572265625)"/>
<path d="M0 0 C1.44731405 -0.00243581 2.8946264 -0.00616271 4.3419342 -0.01106262 C8.22837707 -0.02036746 12.11456347 -0.01113507 16.0009861 0.00226951 C20.09566849 0.01370038 24.19034038 0.0094676 28.28503418 0.00752258 C35.15734984 0.00664325 42.02956619 0.01764411 48.90185547 0.03613281 C56.81239642 0.05729483 64.72279209 0.06080808 72.63335562 0.05457085 C80.28786198 0.04884777 87.94231793 0.05455737 95.59681702 0.0657444 C98.83408047 0.07035157 102.07131269 0.07128127 105.30857849 0.06915855 C109.13039922 0.06725482 112.95207513 0.07553707 116.77386284 0.09121895 C118.16446267 0.09540925 119.55507734 0.09634852 120.94568062 0.09352875 C122.86682919 0.09022821 124.78798576 0.10075308 126.70910645 0.11161804 C127.77679512 0.11367091 128.8444838 0.11572378 129.94452667 0.11783886 C135.98275208 0.50097345 141.96551896 1.51666314 147.95507812 2.37231445 C147.95507812 23.49231445 147.95507812 44.61231445 147.95507812 66.37231445 C132.20384592 67.49740247 132.20384592 67.49740247 126.68891907 67.50602722 C125.43186157 67.51029221 124.17480408 67.51455719 122.87965393 67.51895142 C121.54061886 67.51860215 120.20158382 67.51814075 118.86254883 67.51757812 C117.41036901 67.52057979 115.95818998 67.52398459 114.50601196 67.52775574 C110.60746207 67.53649133 106.70893419 67.53892921 102.81037545 67.53957152 C100.36691519 67.54028729 97.92346035 67.54243131 95.48000145 67.54506874 C86.93449936 67.55428315 78.38901275 67.558408 69.84350586 67.55761719 C61.90906025 67.55701543 53.9746824 67.56759652 46.04025394 67.58336085 C39.19569181 67.59646986 32.35115177 67.60179977 25.50657719 67.60116178 C21.4324896 67.60090805 17.35846254 67.60369041 13.28438759 67.61433983 C9.4552107 67.62407933 5.62615161 67.62406028 1.79697037 67.6168232 C0.40026488 67.61578504 -0.99644819 67.61809401 -2.39314079 67.62418365 C-14.21109498 67.67233608 -26.02585086 67.33293221 -36.04492188 60.37231445 C-42.46994826 53.92017825 -45.41570891 46.73411627 -45.45507812 37.73168945 C-45.44347656 36.8293457 -45.431875 35.92700195 -45.41992188 34.99731445 C-45.43152344 34.10270508 -45.443125 33.2080957 -45.45507812 32.28637695 C-45.41431665 22.93841171 -43.37260271 15.89173829 -36.84179688 9.09106445 C-27.03460731 -0.28972557 -12.89197696 -0.07738561 0 0 Z " fill="#112E69" transform="translate(312.044921875,575.627685546875)"/>
<path d="M0 0 C1.676183 0.00056487 3.35236649 0.00024608 5.02854919 -0.00088501 C9.55684131 -0.00145658 14.08502651 0.01026589 18.61329389 0.02426291 C23.3538389 0.03680304 28.09438663 0.03794335 32.83494568 0.04031372 C41.8019924 0.04651886 50.76899009 0.06291657 59.73601526 0.0830127 C69.94884019 0.10540181 80.16166751 0.1163727 90.37451088 0.12640357 C111.3739749 0.14728368 132.37337176 0.18394782 153.37280273 0.22705078 C153.37280273 22.00705078 153.37280273 43.78705078 153.37280273 66.22705078 C131.90179657 66.27224119 110.43082906 66.30906533 88.95978737 66.33067513 C78.98985717 66.34097673 69.01995868 66.35501572 59.05004883 66.37792969 C50.35775174 66.39789774 41.66547763 66.41077533 32.97315824 66.41522777 C28.37295206 66.41782937 23.77281157 66.42392097 19.1726265 66.43851089 C14.83723307 66.4521488 10.50193201 66.45626093 6.16651917 66.45326614 C4.58073295 66.45381354 2.99494345 66.45775384 1.40917587 66.46546173 C-23.48158185 66.58044924 -23.48158185 66.58044924 -33.19360352 57.81298828 C-39.50042295 50.77194211 -40.10764553 43.94209375 -40.00219727 34.91455078 C-40.01379883 33.93292969 -40.02540039 32.95130859 -40.03735352 31.93994141 C-40.00167931 22.9559881 -38.54154714 14.29141313 -32.62719727 7.22705078 C-23.60515784 -1.22963892 -11.5312442 -0.05457003 0 0 Z " fill="#122F6A" transform="translate(306.627197265625,704.77294921875)"/>
<path d="M0 0 C1.53231537 0.01420565 3.0646456 0.02686885 4.59698486 0.03820801 C8.16691666 0.06711407 11.73661272 0.10548248 15.30639648 0.14892578 C22.47818244 0.23297772 29.65015188 0.27853256 36.82226562 0.32421875 C39.59989549 0.3422552 42.37752381 0.36051842 45.15515137 0.37890625 C46.21284249 0.38590703 46.21284249 0.38590703 47.29190111 0.39304924 C55.30793435 0.44675456 63.32388883 0.51000567 71.33984375 0.57421875 C72.44293774 0.58304644 72.44293774 0.58304644 73.56831646 0.59205246 C76.56134473 0.61602545 79.55437266 0.64003966 82.5474 0.66412926 C91.65264329 0.73736826 100.75790468 0.80828824 109.8631649 0.87938499 C124.11191635 0.99070114 138.36064263 1.10495522 152.609375 1.21875 C152.609375 22.66875 152.609375 44.11875 152.609375 66.21875 C120.50576919 66.46952444 120.50576919 66.46952444 106.84570312 66.57421875 C97.48770605 66.64595198 88.12971115 66.71790803 78.77172852 66.79150391 C71.95032629 66.84514967 65.12891787 66.89791619 58.30750138 66.94971704 C54.71101734 66.97705655 51.11453732 67.00477467 47.5180645 67.03355408 C39.54428863 67.09709103 31.5705527 67.15032159 23.5966301 67.19302368 C20.14500774 67.21529402 16.69368515 67.24663 13.2421872 67.2820878 C10.43146902 67.30888955 7.62073605 67.32691153 4.80993855 67.34307003 C2.86098164 67.35691279 0.91210675 67.38111296 -1.03674412 67.40570831 C-11.99381107 67.45416971 -23.79996449 67.18614885 -32.33203125 59.4609375 C-39.34560522 51.99345791 -40.89484951 44.73871628 -40.765625 34.78125 C-40.77722656 33.89115234 -40.78882813 33.00105469 -40.80078125 32.08398438 C-40.75987047 22.74950853 -38.68857853 15.74722621 -32.203125 8.9375 C-22.93764378 0.1512678 -12.15873479 -0.20671775 0 0 Z " fill="#102D69" transform="translate(307.390625,447.78125)"/>
<path d="M0 0 C1.06609002 -0.00128164 1.06609002 -0.00128164 2.15371722 -0.00258917 C4.52899224 -0.00423285 6.90419623 0.00125917 9.27946472 0.00672913 C10.98461404 0.00701126 12.68976347 0.00685274 14.39491272 0.00628662 C19.02051282 0.00599968 23.64608699 0.01187971 28.27168107 0.01886058 C33.10701252 0.02511132 37.94234457 0.02569928 42.77767944 0.02688599 C51.93254621 0.02999422 61.08740103 0.03820078 70.24226254 0.04823548 C80.665395 0.05941237 91.08852803 0.06491104 101.51166499 0.06993091 C122.95144427 0.0803838 144.39120718 0.09872299 165.83097839 0.12025452 C165.83097839 21.57025452 165.83097839 43.02025452 165.83097839 65.12025452 C143.98608843 65.2106534 122.14135062 65.28429388 100.29632092 65.3275032 C90.15261308 65.34810198 80.00902998 65.37617116 69.86540222 65.42201233 C61.02110769 65.46196238 52.17690352 65.48770683 43.33252126 65.4966085 C38.65227366 65.50180943 33.97228451 65.51397729 29.29211998 65.54317474 C24.88032004 65.57047309 20.46888322 65.57867059 16.05700684 65.57268524 C14.44421218 65.57377906 12.83140446 65.58164674 11.21868324 65.59707642 C-0.65193107 65.70500715 -11.48716251 64.81044651 -20.46174622 56.14320374 C-26.63679092 48.8263983 -27.95078646 41.45975188 -27.73152161 32.12025452 C-27.74247864 31.10447327 -27.75343567 30.08869202 -27.76472473 29.04212952 C-27.68565549 20.81892805 -25.74363339 14.20412149 -21.35652161 7.24525452 C-15.06324934 1.13179003 -8.53246408 -0.00618743 0 0 Z " fill="#102D69" transform="translate(294.1690216064453,961.8797454833984)"/>
<path d="M0 0 C0.69933045 -0.00170885 1.3986609 -0.0034177 2.11918318 -0.00517833 C4.44997367 -0.00845854 6.78047284 0.00250598 9.11123657 0.01345825 C10.78697706 0.01402268 12.46271805 0.01370518 14.13845825 0.01257324 C18.67932393 0.01199998 23.22008372 0.02375006 27.76092482 0.03772116 C32.50949534 0.05023288 37.25806836 0.05139937 42.00665283 0.05377197 C50.9950489 0.05998544 59.98339625 0.07639447 68.97177088 0.09647095 C79.20629129 0.11883409 89.44081405 0.12982443 99.67535281 0.13986182 C120.72514025 0.1607608 141.77486093 0.1974354 162.82461548 0.24050903 C162.49461548 21.69050903 162.16461548 43.14050903 161.82461548 65.24050903 C139.70168727 65.33088331 117.57890905 65.40453412 95.45584297 65.44775772 C85.18319199 65.46836267 74.91066404 65.49644375 64.63809204 65.54226685 C55.68210575 65.58219789 46.7262086 65.60795687 37.77013576 65.61686301 C33.03011785 65.62206714 28.29035487 65.6342556 23.55041885 65.66342926 C19.08363121 65.69069747 14.61720211 65.69893109 10.15033913 65.69293976 C8.51616145 65.69403491 6.88197106 65.70192069 5.24786568 65.71733093 C-4.98114389 65.80901521 -13.19154106 65.01293209 -22.05038452 59.42800903 C-29.426418 51.83503339 -30.52400046 42.97797208 -30.48788452 32.86550903 C-30.51205444 31.52359497 -30.51205444 31.52359497 -30.53671265 30.15457153 C-30.54219589 22.60962603 -29.20783243 16.34895877 -25.05038452 9.99050903 C-18.03539471 3.28051878 -9.67961852 -0.01429781 0 0 Z " fill="#102D69" transform="translate(297.1753845214844,1089.7594909667969)"/>
</svg>
