<?xml version="1.0" encoding="UTF-8"?>
<!DOCTYPE svg PUBLIC "-//W3C//DTD SVG 1.1//EN" "http://www.w3.org/Graphics/SVG/1.1/DTD/svg11.dtd">
<!-- Creator: CorelDRAW -->
<svg xmlns="http://www.w3.org/2000/svg" xml:space="preserve" width="5.33406in" height="5.33406in" version="1.1" style="shape-rendering:geometricPrecision; text-rendering:geometricPrecision; image-rendering:optimizeQuality; fill-rule:evenodd; clip-rule:evenodd"
viewBox="0 0 645.55 645.55"
 xmlns:xlink="http://www.w3.org/1999/xlink"
 xmlns:xodm="http://www.corel.com/coreldraw/odm/2003">
 <defs>
  <style type="text/css">
   <![CDATA[
    .fil4 {fill:none}
    .fil2 {fill:#00316C}
    .fil0 {fill:#02AC51}
    .fil1 {fill:#CCCC33}
    .fil3 {fill:#FDBD11}
   ]]>
  </style>
 </defs>
 <g id="Layer_x0020_1">
  <metadata id="CorelCorpID_0Corel-Layer"/>
  <g id="_2327912470272">
   <g>
    <path class="fil0" d="M247.07 567.62c14.66,0.01 32.19,-0.87 47.93,-0.72l22.29 0.47c25.29,-1.93 55.95,-0.58 80.9,0.24l6.82 -8.52c1.82,-4.3 1.81,-5.87 0.44,-10.21 -4.81,-15.31 -36.54,-6.16 -66.43,-9.12 -4.04,-14.13 -5.31,-45.23 2.01,-56.15 36.7,-54.78 108.89,-15.13 112.38,11.7 3.68,-27.93 -22.91,-72.47 -59.31,-67.94 -32.7,4.07 -46.6,43.38 -80.45,47.28 0.17,16.83 3.28,51.79 -3.71,65.09 -16.33,1.39 -35.56,0.27 -52.21,0.3 -9.37,0.01 -15.44,2.25 -17.62,9.12 -3.08,9.71 3.07,11.91 6.97,18.47z"/>
    <path class="fil0" d="M178.45 408.06c2.36,-1.67 1.39,-0.94 3.46,-2.72l6 -5.96c19.39,-19.97 55.49,-31.27 81.4,-26.99 17.97,2.97 32.91,13.61 39.96,23.64 6.52,9.26 7.15,10.13 7.03,24.51 -0.08,10.04 -3.83,46.31 -2.63,56.24l21.27 4.91 2.12 -91.67c-29.7,-6.15 -42.52,-57.28 -87.21,-52.65 -19.79,2.05 -38.67,12.28 -47.39,22.84 -8.67,10.51 -20.66,28.77 -24.01,47.86z"/>
    <path class="fil0" d="M337.06 390.01c0.85,-25.18 -1.87,-72.68 14.19,-84.4 30.31,-22.11 56.96,-22.32 89.6,-4.15 15.33,8.53 20.87,15.64 32.09,26.27 -1.41,-36.35 -32.98,-70.52 -67.29,-73.35 -38.73,-3.19 -59.64,47.64 -87.24,53l-2.85 100.06 21.49 -17.44z"/>
    <path class="fil1" d="M345.44 129.16c1.47,-10.26 5.54,-13.88 2.63,-26.04 -4.74,-0.76 -3.36,-2.19 -9.46,3.39l-1.72 1.98c-0.35,-11.44 0.82,-26.85 -8.72,-30.57 -5.84,6.97 -5.79,19.15 -6.37,30.44 -19,-18.91 -8.3,10.77 -7.73,21.91 -4.27,-1.81 -5.25,-3.52 -10.17,-3.21 -1.69,6.53 0.42,14.14 4.55,19.03l-8.96 3.83c-0.66,8.57 4.7,16.71 8.03,22.58 6.01,10.59 6.73,7.37 15.11,14.4 -0,6.92 -2.76,23.97 13.43,24.51l0.18 -24.51c9.05,-8.3 6.93,0.67 18.41,-20.82 13.09,-24.49 -2.53,-17.41 -4.04,-17.84 2.63,-6.49 14.24,-33.67 -5.19,-19.1z"/>
    <path class="fil0" d="M240.63 226.65c0.4,-0.3 0.86,-0.75 1.12,-1.01 8.5,-8.43 23.58,-35.69 54.89,-18.61 31.06,16.95 22.78,43.54 23.96,60.33 3.86,-4.96 8.54,-14.41 12.36,-20.47 7.27,-11.52 5.82,-11.76 5.55,-28.05 -7.13,-5.47 -8.83,1.2 -27.46,-21.32 -33.83,-40.89 -62.98,-24.36 -70.43,29.12z"/>
    <path class="fil2" d="M160.06 567.12l42.63 -0.03c5.06,-4.04 13.73,-10.08 7.11,-21.11 -4.76,-7.92 -16.33,-5.84 -27.61,-5.82 -10.45,0.02 -23.07,-2.25 -28.25,5.13 -7.58,10.81 1.18,16.96 6.12,21.83z"/>
    <path class="fil2" d="M441.81 567.57c13.34,-1.09 29.23,-0.9 43.27,-0.49 5.12,-4.03 13.68,-10.11 7.11,-21.11 -4.58,-7.66 -15.15,-5.86 -25.93,-5.82 -6.74,0.03 -38.46,-4.44 -31.7,17.66 0.76,2.49 1.81,3.51 3.41,5.44l3.85 4.32z"/>
    <g>
     <path class="fil0" d="M354.82 456.16c8.67,-4.29 8.2,-4.17 15,-11.89 4.32,-4.9 3,-4.11 5.77,-7.82l4.87 -8.24c-11.15,-3.23 -11.42,1.97 -15.1,0.8 -0.87,-3.5 5.41,-4.78 8.77,-4.86 7.49,-0.18 11.59,6.61 20.41,-5.1 1.14,-1.52 2.07,-2.49 3.56,-3.65 1.54,-1.19 3.09,-1.91 2.29,-4.26 -2.77,-2.32 -17.71,2.24 -21.15,3.37 -6.71,2.19 -12.83,5.01 -18.19,8.2 -7.15,4.25 -16.37,12.29 -20.56,19.02 -1.24,1.99 -4.33,6.03 -4.8,8.47 3.04,3.47 7.57,6.54 14.3,6.76l4.84 -0.79z"/>
     <path class="fil0" d="M357.46 420.75c0.64,-10.42 -4.15,-25.82 -8.44,-35.37 -0.76,-1.7 -1.04,-4.2 -3.49,-3.41 -1.72,0.56 -1.44,3.17 -1.86,5.36 -0.71,3.64 -2.79,8.07 -2.61,11.66 0.23,4.81 3.33,6.56 5.06,9.27 2.26,3.54 4.03,11.14 0.63,9.86 -1.93,-0.72 -0.52,-6.54 -4.59,-9.82 -2.56,4.28 -5.7,11.61 -7.39,16.89 -2.65,8.3 -2.89,11.69 -1.69,20.44l1.73 -2.05c0.42,-0.67 0.7,-1.15 1.26,-1.93 0.87,-1.23 1.39,-2.29 2.45,-3.53 1.23,-1.44 1.35,-1.94 2.66,-3.33 1.02,-1.08 1.66,-2.1 2.75,-3.23 2.33,-2.43 10.37,-9.33 13.54,-10.81z"/>
     <path class="fil0" d="M334.44 454.96c-4.3,8.71 -9.24,12.65 -2.46,16.59 3.92,2.28 6.33,0.84 8.23,-2.57 1.34,-2.4 3.67,-6.27 4.46,-8.63 -1.96,-0.28 -4.01,-1.38 -5.61,-2.3 -1.91,-1.1 -3.06,-2.44 -4.63,-3.09z"/>
     <path class="fil3" d="M370.9 395.82c-1.34,-1.1 -5.58,-4.14 -7.81,-3.79 -1.79,0.28 -5,5.55 -4.4,7.65 0.39,1.39 5.63,4.56 7.83,4.24 2.04,-0.3 2.03,-1.62 2.96,-3.18 0.67,-1.13 1,-1.1 1.32,-2.26l0.16 -1.05c0.05,-0.81 0.01,-0.84 -0.06,-1.62z"/>
     <path class="fil3" d="M374.49 398.47c-2.5,0.62 -4.53,6.27 -4.14,7.5 0.5,1.55 5.73,4.89 8.12,4.32 1.66,-0.4 4.67,-5.61 3.87,-7.89 -0.53,-1.5 -5.89,-4.42 -7.86,-3.93z"/>
     <path class="fil3" d="M379.68 388.9c-1.92,0.9 -4.56,4.39 -2.69,6.85 0.68,0.9 5.18,3.64 7.03,3.24 1.68,-0.37 4.3,-4.72 2.47,-7.06 -0.69,-0.88 -5.13,-3.81 -6.81,-3.03z"/>
     <path class="fil3" d="M368.03 382.97c-0.98,1.16 -4.26,4.19 -2.43,6.6 0.72,0.95 5.3,3.58 7.3,3.13 1.52,-0.34 4.39,-4.41 2.83,-6.83 -0.73,-1.14 -4.92,-3.09 -7.69,-2.9z"/>
     <path class="fil3" d="M381.77 385.85c1.81,1.47 6.41,5.31 8.5,1.72l0.38 -0.85c2.74,-6.53 -4.95,-7.51 -5.64,-7.37 -2.25,0.43 -3.5,3.61 -3.24,6.5z"/>
     <path class="fil3" d="M373.75 374.62c-1.55,0.99 -3.83,4.51 -1.63,6.48 0.17,0.15 4.56,3.17 6.65,1.81 1.21,-0.78 3.58,-4.37 2.05,-6.53 -0.87,-1.23 -5.16,-2.98 -7.08,-1.76z"/>
     <path class="fil3" d="M380.72 365.62c-5.83,2.36 -2.35,9.71 2.76,8.03 1.38,-0.45 3.26,-3.45 3.06,-5.36 -0.24,-2.27 -3.54,-3.59 -5.83,-2.67z"/>
     <path class="fil3" d="M389.6 370.09c-1,0.46 -3.39,3.67 -2.81,5.49 0.41,1.28 3.49,3.77 5.56,3.31 1.67,-0.37 3.3,-3.61 2.86,-5.72 -0.36,-1.71 -3.15,-4.23 -5.61,-3.08z"/>
     <path class="fil3" d="M389.89 395.94c-1.18,0.77 -3.27,3.2 -2.33,5.63 0.53,1.37 3.68,3.53 5.86,2.41 1.19,-0.61 2.8,-4.02 1.94,-5.76 -0.72,-1.45 -3.57,-3.53 -5.47,-2.28z"/>
     <path class="fil3" d="M359.03 379.04c-6.35,3.04 -1.6,9.57 2.75,7.71 1.29,-0.55 3.47,-3.23 2.62,-5.51 -0.53,-1.43 -3.41,-3.14 -5.37,-2.2z"/>
     <path class="fil3" d="M393.83 387.1c-5,2.78 -0.6,8.83 3.2,7.25 4.63,-1.93 0.4,-9.25 -3.2,-7.25z"/>
     <path class="fil3" d="M395.29 360.55c-3.96,1.38 -4.73,9.07 0.75,7.77 1.78,-0.42 2.59,-2.82 2.8,-4.58 0.26,-2.19 -1.71,-3.84 -3.55,-3.19z"/>
     <path class="fil3" d="M391.35 357.77c-1.87,-1.41 -2.99,-1.95 -4.95,-0.03 -5.4,5.3 0.84,7.73 3.14,5.94 1.47,-1.15 2.15,-3.48 1.81,-5.91z"/>
     <path class="fil3" d="M368.83 371.98c-7.85,-2.2 -7.67,4.05 -5.33,5.34 3.78,2.09 8.17,-0.02 5.33,-5.34z"/>
     <path class="fil3" d="M364.26 416.51c3.23,-1.18 6.46,-2.87 9.95,-4.27 -0.88,-1.36 -4.47,-3.84 -6.73,-2.3 -1.08,0.74 -3.28,4.95 -3.22,6.57z"/>
     <path class="fil3" d="M360.35 409.6c0.25,1.6 0.26,3.88 0.99,5.06 3.23,-2.16 6.2,-9.62 -1.69,-10.54 -0.01,2.26 0.37,3.34 0.7,5.48z"/>
     <path class="fil3" d="M397.45 378.27c-4.45,2.27 -0.87,7.42 2.31,6.06 3.24,-1.38 1.74,-8.12 -2.31,-6.06z"/>
     <path class="fil3" d="M370.27 364.76c-3.52,2.71 0.35,6.86 3.62,4.85 3.59,-2.21 0.24,-7.82 -3.62,-4.85z"/>
     <path class="fil3" d="M357.03 395.34c0.82,-0.78 2.6,-3.12 2.08,-4.83 -0.54,-1.78 -2.73,-3.01 -4.78,-2.88 0.02,1.43 2.06,6.1 2.7,7.71z"/>
     <path class="fil3" d="M383.18 409.12c2.17,-0.1 2.36,-0.28 3.91,-0.66 1.17,-0.29 2.54,-0.38 3.44,-1.03 -0.38,-1.21 -2.72,-2.57 -4.35,-2.37 -1.93,0.24 -2.79,2.21 -3,4.06z"/>
     <path class="fil3" d="M398.83 372.65c2.47,2.92 1.88,2.48 3.03,2.18 0.05,-0.1 0.13,-0.37 0.15,-0.31 0.02,0.05 0.11,-0.23 0.13,-0.32 0.3,-1.38 0.11,-4.06 -0.33,-5.16 -0.86,-2.15 0.06,-0.73 -1.3,-1.33 -1.19,1.22 -1.66,3.27 -1.68,4.95z"/>
     <path class="fil3" d="M375.59 361.06l2.11 0.66c0.81,0.05 1.79,-0.04 2.6,-0.09 0.99,-1.51 2.27,-2.04 2.24,-4.16 -1.96,-0.07 -3.99,0.98 -5.59,1.96 -1.39,0.84 -0.98,0.37 -1.35,1.64z"/>
    </g>
    <path class="fil1" d="M447.49 358.71c-4.67,-4.66 -3.74,-0.55 -6.94,-8.06 -8.52,-20 -15.97,-11.9 -21.06,-17.86 -1.09,-1.28 1.25,2.79 -0.97,-2.04l-0.67 -1.73c-18.16,-1.12 -26.52,9.31 -29.66,24.09 10.05,1.51 9.37,2.37 13.17,8.3 1.2,-1.46 1.68,-1.33 12.04,-2.82l4.57 -1.55c0.97,-3.28 11.16,10.9 29.51,1.65z"/>
    <g>
     <path class="fil0" d="M297.17 366.8c-8.67,-4.29 -8.2,-4.17 -15,-11.89 -4.32,-4.9 -3,-4.11 -5.77,-7.82l-4.87 -8.24c11.15,-3.23 11.42,1.97 15.1,0.8 0.87,-3.5 -5.41,-4.78 -8.77,-4.86 -7.49,-0.18 -11.59,6.61 -20.41,-5.1 -1.14,-1.52 -2.07,-2.49 -3.56,-3.65 -1.54,-1.19 -3.09,-1.91 -2.29,-4.26 2.77,-2.32 17.71,2.24 21.15,3.37 6.71,2.19 12.83,5.01 18.19,8.2 7.15,4.25 16.37,12.29 20.56,19.02 1.24,1.99 4.33,6.03 4.8,8.47 -3.04,3.47 -7.57,6.54 -14.3,6.76l-4.84 -0.79z"/>
     <path class="fil0" d="M294.53 331.39c-0.64,-10.42 4.15,-25.82 8.44,-35.37 0.76,-1.7 1.04,-4.2 3.49,-3.41 1.72,0.56 1.44,3.17 1.86,5.36 0.71,3.64 2.79,8.07 2.61,11.66 -0.23,4.81 -3.33,6.56 -5.06,9.27 -2.26,3.54 -4.03,11.14 -0.63,9.86 1.93,-0.72 0.52,-6.54 4.59,-9.82 2.56,4.28 5.7,11.61 7.39,16.89 2.65,8.3 2.89,11.69 1.69,20.44l-1.73 -2.05c-0.42,-0.67 -0.7,-1.15 -1.26,-1.93 -0.87,-1.23 -1.39,-2.29 -2.45,-3.53 -1.23,-1.44 -1.35,-1.94 -2.66,-3.33 -1.02,-1.08 -1.66,-2.1 -2.75,-3.23 -2.33,-2.43 -10.37,-9.33 -13.54,-10.81z"/>
     <path class="fil0" d="M317.55 365.6c4.3,8.71 9.24,12.65 2.46,16.59 -3.92,2.28 -6.33,0.84 -8.23,-2.57 -1.34,-2.4 -3.67,-6.27 -4.46,-8.63 1.96,-0.28 4.01,-1.38 5.61,-2.3 1.91,-1.1 3.06,-2.44 4.63,-3.09z"/>
     <path class="fil3" d="M281.1 306.46c1.34,-1.1 5.58,-4.14 7.81,-3.79 1.79,0.28 5,5.55 4.4,7.65 -0.39,1.39 -5.63,4.56 -7.83,4.24 -2.04,-0.3 -2.03,-1.62 -2.96,-3.18 -0.67,-1.13 -1,-1.1 -1.32,-2.26l-0.16 -1.05c-0.05,-0.81 -0.01,-0.84 0.06,-1.62z"/>
     <path class="fil3" d="M277.5 309.11c2.5,0.62 4.53,6.27 4.14,7.5 -0.5,1.55 -5.73,4.89 -8.12,4.32 -1.66,-0.4 -4.67,-5.61 -3.87,-7.89 0.53,-1.5 5.89,-4.42 7.86,-3.93z"/>
     <path class="fil3" d="M272.32 299.55c1.92,0.9 4.56,4.39 2.69,6.85 -0.68,0.9 -5.18,3.64 -7.03,3.24 -1.68,-0.37 -4.3,-4.72 -2.47,-7.06 0.69,-0.88 5.13,-3.81 6.81,-3.03z"/>
     <path class="fil3" d="M283.96 293.61c0.98,1.16 4.26,4.19 2.43,6.6 -0.72,0.95 -5.3,3.58 -7.3,3.13 -1.52,-0.34 -4.39,-4.41 -2.83,-6.83 0.73,-1.14 4.92,-3.09 7.69,-2.9z"/>
     <path class="fil3" d="M270.22 296.49c-1.81,1.47 -6.41,5.31 -8.5,1.72l-0.38 -0.85c-2.74,-6.53 4.95,-7.51 5.64,-7.37 2.25,0.43 3.5,3.61 3.24,6.5z"/>
     <path class="fil3" d="M278.25 285.26c1.55,0.99 3.83,4.51 1.63,6.48 -0.17,0.15 -4.56,3.17 -6.65,1.81 -1.21,-0.78 -3.58,-4.37 -2.05,-6.53 0.87,-1.23 5.16,-2.98 7.08,-1.76z"/>
     <path class="fil3" d="M271.27 276.26c5.83,2.36 2.35,9.71 -2.76,8.03 -1.38,-0.45 -3.26,-3.45 -3.06,-5.36 0.24,-2.27 3.54,-3.59 5.83,-2.67z"/>
     <path class="fil3" d="M262.4 280.74c1,0.46 3.39,3.67 2.81,5.49 -0.41,1.28 -3.49,3.77 -5.56,3.31 -1.67,-0.37 -3.3,-3.61 -2.86,-5.72 0.36,-1.71 3.15,-4.23 5.61,-3.08z"/>
     <path class="fil3" d="M262.11 306.58c1.18,0.77 3.27,3.2 2.33,5.63 -0.53,1.37 -3.68,3.53 -5.86,2.41 -1.19,-0.61 -2.8,-4.02 -1.94,-5.76 0.72,-1.45 3.57,-3.53 5.47,-2.28z"/>
     <path class="fil3" d="M292.96 289.68c6.35,3.04 1.6,9.57 -2.75,7.71 -1.29,-0.55 -3.47,-3.23 -2.62,-5.51 0.53,-1.43 3.41,-3.14 5.37,-2.2z"/>
     <path class="fil3" d="M258.17 297.74c5,2.78 0.6,8.83 -3.2,7.25 -4.63,-1.93 -0.4,-9.25 3.2,-7.25z"/>
     <path class="fil3" d="M256.7 271.19c3.96,1.38 4.73,9.07 -0.75,7.77 -1.78,-0.42 -2.59,-2.82 -2.8,-4.58 -0.26,-2.19 1.71,-3.84 3.55,-3.19z"/>
     <path class="fil3" d="M260.64 268.41c1.87,-1.41 2.99,-1.95 4.95,-0.03 5.4,5.3 -0.84,7.73 -3.14,5.94 -1.47,-1.15 -2.15,-3.48 -1.81,-5.91z"/>
     <path class="fil3" d="M283.17 282.62c7.85,-2.2 7.67,4.05 5.33,5.34 -3.78,2.09 -8.17,-0.02 -5.33,-5.34z"/>
     <path class="fil3" d="M287.73 327.15c-3.23,-1.18 -6.46,-2.87 -9.95,-4.27 0.88,-1.36 4.47,-3.84 6.73,-2.3 1.08,0.74 3.28,4.95 3.22,6.57z"/>
     <path class="fil3" d="M291.64 320.24c-0.25,1.6 -0.26,3.88 -0.99,5.06 -3.23,-2.16 -6.2,-9.62 1.69,-10.54 0.01,2.26 -0.37,3.34 -0.7,5.48z"/>
     <path class="fil3" d="M254.54 288.91c4.45,2.27 0.87,7.42 -2.31,6.06 -3.24,-1.38 -1.74,-8.12 2.31,-6.06z"/>
     <path class="fil3" d="M281.72 275.4c3.52,2.71 -0.35,6.86 -3.62,4.85 -3.59,-2.21 -0.24,-7.82 3.62,-4.85z"/>
     <path class="fil3" d="M294.96 305.98c-0.82,-0.78 -2.6,-3.12 -2.08,-4.83 0.54,-1.78 2.73,-3.01 4.78,-2.88 -0.02,1.43 -2.06,6.1 -2.7,7.71z"/>
     <path class="fil3" d="M268.81 319.76c-2.17,-0.1 -2.36,-0.28 -3.91,-0.66 -1.17,-0.29 -2.54,-0.38 -3.44,-1.03 0.38,-1.21 2.72,-2.57 4.35,-2.37 1.93,0.24 2.79,2.21 3,4.06z"/>
     <path class="fil3" d="M253.16 283.29c-2.47,2.92 -1.88,2.48 -3.03,2.18 -0.05,-0.1 -0.13,-0.37 -0.15,-0.31 -0.02,0.05 -0.11,-0.23 -0.13,-0.32 -0.3,-1.38 -0.11,-4.06 0.33,-5.16 0.86,-2.15 -0.06,-0.73 1.3,-1.33 1.19,1.22 1.66,3.27 1.68,4.95z"/>
     <path class="fil3" d="M276.41 271.7l-2.11 0.66c-0.81,0.05 -1.79,-0.04 -2.6,-0.09 -0.99,-1.51 -2.27,-2.04 -2.24,-4.16 1.96,-0.07 3.99,0.98 5.59,1.96 1.39,0.84 0.98,0.37 1.35,1.64z"/>
    </g>
    <path class="fil1" d="M204.51 269.35c4.67,-4.66 3.74,-0.55 6.94,-8.06 8.52,-20 15.97,-11.9 21.06,-17.86 1.09,-1.28 -1.25,2.79 0.97,-2.04l0.67 -1.73c18.16,-1.12 26.52,9.31 29.66,24.09 -10.05,1.51 -9.37,2.37 -13.17,8.3 -1.2,-1.46 -1.68,-1.33 -12.04,-2.82l-4.57 -1.55c-0.97,-3.28 -11.16,10.9 -29.51,1.65z"/>
    <g>
     <path class="fil0" d="M343.92 296.51c8.16,-4.04 7.73,-3.93 14.13,-11.2 4.07,-4.62 2.83,-3.87 5.44,-7.37l4.59 -7.76c-10.51,-3.04 -10.75,1.86 -14.23,0.76 -0.82,-3.3 5.1,-4.51 8.26,-4.58 7.06,-0.17 10.92,6.23 19.23,-4.81 1.08,-1.43 1.94,-2.35 3.35,-3.44 1.45,-1.12 2.91,-1.8 2.16,-4.01 -2.61,-2.19 -16.68,2.11 -19.92,3.17 -6.32,2.07 -12.09,4.72 -17.14,7.72 -6.74,4 -15.42,11.58 -19.37,17.92 -1.17,1.88 -4.08,5.68 -4.52,7.98 2.86,3.26 7.13,6.16 13.47,6.37l4.56 -0.74z"/>
     <path class="fil0" d="M346.41 263.16c0.6,-9.81 -3.9,-24.32 -7.95,-33.32 -0.72,-1.6 -0.98,-3.96 -3.29,-3.21 -1.62,0.52 -1.35,2.99 -1.75,5.05 -0.67,3.43 -2.63,7.6 -2.46,10.98 0.22,4.53 3.14,6.18 4.76,8.73 2.13,3.34 3.8,10.49 0.59,9.29 -1.81,-0.68 -0.49,-6.16 -4.32,-9.25 -2.41,4.03 -5.37,10.94 -6.96,15.91 -2.5,7.82 -2.72,11.01 -1.59,19.26l1.63 -1.93c0.39,-0.63 0.66,-1.08 1.19,-1.82 0.82,-1.16 1.31,-2.15 2.31,-3.33 1.16,-1.36 1.28,-1.83 2.5,-3.13 0.96,-1.02 1.56,-1.98 2.59,-3.05 2.19,-2.28 9.77,-8.79 12.75,-10.18z"/>
     <path class="fil0" d="M324.72 295.39c-4.05,8.21 -8.7,11.91 -2.32,15.63 3.7,2.15 5.96,0.79 7.75,-2.42 1.26,-2.26 3.46,-5.9 4.2,-8.13 -1.84,-0.27 -3.77,-1.3 -5.28,-2.16 -1.8,-1.04 -2.89,-2.3 -4.36,-2.91z"/>
     <path class="fil3" d="M359.06 239.68c-1.27,-1.03 -5.26,-3.9 -7.36,-3.57 -1.69,0.26 -4.71,5.23 -4.15,7.21 0.37,1.31 5.3,4.3 7.38,3.99 1.92,-0.29 1.91,-1.52 2.79,-2.99 0.63,-1.07 0.94,-1.04 1.24,-2.13l0.15 -0.98c0.05,-0.76 0.01,-0.79 -0.05,-1.52z"/>
     <path class="fil3" d="M362.45 242.17c-2.36,0.59 -4.27,5.91 -3.9,7.06 0.47,1.46 5.39,4.61 7.65,4.07 1.57,-0.38 4.4,-5.28 3.65,-7.43 -0.5,-1.42 -5.55,-4.16 -7.4,-3.7z"/>
     <path class="fil3" d="M367.33 233.16c-1.8,0.84 -4.3,4.13 -2.53,6.45 0.64,0.85 4.88,3.43 6.63,3.05 1.58,-0.35 4.05,-4.45 2.32,-6.65 -0.65,-0.83 -4.83,-3.59 -6.41,-2.85z"/>
     <path class="fil3" d="M356.37 227.57c-0.92,1.09 -4.01,3.95 -2.29,6.22 0.68,0.9 4.99,3.37 6.88,2.95 1.44,-0.32 4.14,-4.15 2.66,-6.44 -0.69,-1.07 -4.64,-2.91 -7.25,-2.73z"/>
     <path class="fil3" d="M369.31 230.29c1.71,1.38 6.04,5 8,1.62l0.36 -0.8c2.58,-6.15 -4.67,-7.07 -5.31,-6.95 -2.12,0.41 -3.29,3.4 -3.05,6.13z"/>
     <path class="fil3" d="M361.75 219.7c-1.46,0.93 -3.61,4.25 -1.53,6.1 0.16,0.15 4.29,2.99 6.26,1.7 1.13,-0.74 3.37,-4.12 1.93,-6.15 -0.82,-1.16 -4.86,-2.81 -6.67,-1.66z"/>
     <path class="fil3" d="M368.32 211.23c-5.5,2.23 -2.21,9.15 2.6,7.56 1.3,-0.43 3.08,-3.25 2.89,-5.05 -0.22,-2.14 -3.34,-3.38 -5.49,-2.51z"/>
     <path class="fil3" d="M376.68 215.44c-0.94,0.44 -3.2,3.46 -2.64,5.17 0.39,1.2 3.29,3.55 5.24,3.11 1.57,-0.35 3.11,-3.4 2.69,-5.39 -0.34,-1.61 -2.96,-3.98 -5.29,-2.9z"/>
     <path class="fil3" d="M376.95 239.79c-1.11,0.72 -3.08,3.01 -2.19,5.31 0.5,1.29 3.46,3.32 5.52,2.27 1.12,-0.58 2.64,-3.78 1.82,-5.43 -0.68,-1.36 -3.36,-3.32 -5.15,-2.15z"/>
     <path class="fil3" d="M347.89 223.87c-5.98,2.86 -1.51,9.01 2.59,7.26 1.21,-0.52 3.26,-3.04 2.47,-5.19 -0.5,-1.35 -3.21,-2.95 -5.06,-2.07z"/>
     <path class="fil3" d="M380.66 231.46c-4.71,2.62 -0.57,8.32 3.01,6.83 4.36,-1.82 0.38,-8.72 -3.01,-6.83z"/>
     <path class="fil3" d="M382.04 206.45c-3.73,1.3 -4.46,8.54 0.71,7.32 1.68,-0.4 2.44,-2.66 2.63,-4.31 0.24,-2.07 -1.61,-3.61 -3.35,-3.01z"/>
     <path class="fil3" d="M378.33 203.83c-1.76,-1.33 -2.82,-1.83 -4.66,-0.02 -5.09,4.99 0.79,7.28 2.96,5.59 1.39,-1.08 2.03,-3.28 1.71,-5.57z"/>
     <path class="fil3" d="M357.11 217.22c-7.39,-2.07 -7.22,3.81 -5.02,5.03 3.56,1.97 7.69,-0.02 5.02,-5.03z"/>
     <path class="fil3" d="M352.81 259.16c3.04,-1.11 6.09,-2.7 9.37,-4.02 -0.83,-1.28 -4.21,-3.62 -6.34,-2.17 -1.02,0.7 -3.09,4.66 -3.04,6.19z"/>
     <path class="fil3" d="M349.13 252.65c0.23,1.51 0.25,3.65 0.94,4.76 3.04,-2.04 5.84,-9.06 -1.59,-9.93 -0.01,2.13 0.35,3.15 0.66,5.17z"/>
     <path class="fil3" d="M384.08 223.15c-4.19,2.14 -0.82,6.99 2.18,5.71 3.05,-1.3 1.64,-7.65 -2.18,-5.71z"/>
     <path class="fil3" d="M358.47 210.41c-3.32,2.55 0.33,6.46 3.41,4.57 3.38,-2.08 0.23,-7.36 -3.41,-4.57z"/>
     <path class="fil3" d="M346 239.22c0.77,-0.74 2.44,-2.94 1.96,-4.55 -0.51,-1.67 -2.57,-2.84 -4.5,-2.72 0.02,1.35 1.94,5.75 2.54,7.27z"/>
     <path class="fil3" d="M370.63 252.2c2.04,-0.09 2.22,-0.26 3.68,-0.62 1.1,-0.27 2.39,-0.36 3.24,-0.97 -0.35,-1.14 -2.56,-2.42 -4.1,-2.23 -1.82,0.23 -2.63,2.09 -2.82,3.83z"/>
     <path class="fil3" d="M385.38 217.85c2.33,2.75 1.77,2.33 2.86,2.05 0.05,-0.1 0.12,-0.34 0.14,-0.29 0.02,0.05 0.1,-0.22 0.12,-0.3 0.28,-1.3 0.1,-3.82 -0.31,-4.87 -0.81,-2.03 0.06,-0.69 -1.22,-1.25 -1.12,1.15 -1.56,3.08 -1.58,4.66z"/>
     <path class="fil3" d="M363.48 206.93l1.99 0.62c0.76,0.04 1.68,-0.04 2.44,-0.08 0.93,-1.42 2.14,-1.92 2.11,-3.92 -1.85,-0.07 -3.75,0.92 -5.27,1.84 -1.31,0.79 -0.93,0.35 -1.28,1.55z"/>
    </g>
    <path class="fil1" d="M431.21 204.71c-4.4,-4.39 -3.53,-0.52 -6.54,-7.59 -8.03,-18.84 -15.05,-11.21 -19.84,-16.82 -1.03,-1.2 1.17,2.63 -0.91,-1.92l-0.63 -1.63c-17.1,-1.06 -24.98,8.77 -27.94,22.69 9.47,1.42 8.83,2.23 12.41,7.82 1.13,-1.38 1.58,-1.25 11.34,-2.65l4.31 -1.46c0.92,-3.09 10.51,10.26 27.8,1.55z"/>
   </g>
   <rect class="fil4" y="-0" width="645.55" height="645.55"/>
  </g>
 </g>
</svg>
