<?xml version="1.0" encoding="UTF-8"?>
<!DOCTYPE svg PUBLIC "-//W3C//DTD SVG 1.1//EN" "http://www.w3.org/Graphics/SVG/1.1/DTD/svg11.dtd">
<!-- Creator: CorelDRAW -->
<svg xmlns="http://www.w3.org/2000/svg" xml:space="preserve" width="5.33406in" height="5.33406in" version="1.1" style="shape-rendering:geometricPrecision; text-rendering:geometricPrecision; image-rendering:optimizeQuality; fill-rule:evenodd; clip-rule:evenodd"
viewBox="0 0 403.63 403.63"
 xmlns:xlink="http://www.w3.org/1999/xlink"
 xmlns:xodm="http://www.corel.com/coreldraw/odm/2003">
 <defs>
  <style type="text/css">
   <![CDATA[
    .fil2 {fill:none}
    .fil1 {fill:#00316C}
    .fil0 {fill:#02AC51}
   ]]>
  </style>
 </defs>
 <g id="Layer_x0020_1">
  <metadata id="CorelCorpID_0Corel-Layer"/>
  <g id="_2327906299472">
   <g>
    <path class="fil0" d="M154.48 354.9c9.16,0.01 20.12,-0.54 29.97,-0.45l13.94 0.29c15.81,-1.21 34.98,-0.36 50.58,0.15l4.27 -5.33c1.14,-2.69 1.13,-3.67 0.28,-6.38 -3.01,-9.57 -22.85,-3.85 -41.53,-5.7 -2.53,-8.84 -3.32,-28.28 1.25,-35.11 22.94,-34.25 68.08,-9.46 70.26,7.31 2.3,-17.46 -14.33,-45.31 -37.08,-42.48 -15.29,1.9 -24,16.12 -36.27,24.19l0.02 -29.13c1.31,-3.65 0.65,-7.19 0.6,-18.41 -0.2,-0.04 -0.39,-0.09 -0.58,-0.14l0.01 -23.87 0.21 0.24c0.53,-15.74 -0.81,-21.67 9.23,-29 18.95,-13.83 35.61,-13.95 56.02,-2.59 9.58,5.33 13.05,9.78 20.07,16.43 -0.88,-22.73 -20.62,-44.09 -42.07,-45.86 -18.81,-1.55 -30.89,17.28 -43.44,27.33l0.03 -40.22c0.26,-2.58 0.09,-5.59 0.01,-10.25l-0 -0 0.01 -8.97c0.02,-24.36 17.79,-23.38 41.16,-15.24 0.14,-0.27 -44.07,-38.5 -49.66,5.16l-0.44 14.09c-1.68,-1.56 -3.86,-3.89 -6.8,-7.45 -21.15,-25.57 -39.38,-15.23 -44.03,18.21 0.25,-0.19 0.54,-0.47 0.7,-0.63 5.31,-5.27 14.74,-22.32 34.32,-11.64 12.69,6.92 14.88,16.42 15.08,25.11l-1.18 37.57c-0.1,0.02 -0.19,0.04 -0.29,0.06 0.16,5.6 -0.26,7.75 -0.01,9.52l-1.08 34.65c-11.26,-10.51 -21.02,-27.59 -41.77,-25.44 -12.37,1.28 -24.18,7.68 -29.63,14.28 -5.42,6.57 -12.92,17.99 -15.01,29.92 1.48,-1.05 0.87,-0.59 2.16,-1.7l3.75 -3.73c12.12,-12.48 34.7,-19.55 50.89,-16.88 11.23,1.86 20.57,8.51 24.99,14.78 2.41,3.42 3.53,5.01 4.03,7.59l-1.3 41.56c0.1,10.52 2.05,32.38 -2.32,40.7 -10.21,0.87 -22.24,0.17 -32.64,0.19 -5.86,0.01 -9.65,1.41 -11.02,5.7 -1.93,6.07 1.92,7.45 4.36,11.55z"/>
    <path class="fil1" d="M100.08 354.59l26.65 -0.02c3.16,-2.53 8.58,-6.3 4.44,-13.2 -2.97,-4.95 -10.21,-3.65 -17.27,-3.64 -6.53,0.01 -14.42,-1.41 -17.66,3.21 -4.74,6.76 0.74,10.6 3.83,13.65z"/>
    <path class="fil1" d="M276.24 354.87c8.34,-0.68 18.28,-0.57 27.06,-0.3 3.2,-2.52 8.56,-6.32 4.44,-13.2 -2.86,-4.79 -9.47,-3.67 -16.22,-3.64 -4.21,0.02 -24.05,-2.78 -19.82,11.04 0.48,1.56 1.13,2.19 2.13,3.4l2.4 2.7z"/>
   </g>
   <rect class="fil2" y="-0" width="403.63" height="403.63"/>
  </g>
 </g>
</svg>
